M48
; DRILL file {KiCad (5.99.0-12255-gad1ee958b0)} date Mon Feb 21 16:34:16 2022
; FORMAT={-:-/ absolute / metric / decimal}
; #@! TF.CreationDate,2022-02-21T16:34:16+02:00
; #@! TF.GenerationSoftware,Kicad,Pcbnew,(5.99.0-12255-gad1ee958b0)
; #@! TF.FileFunction,MixedPlating,1,2
FMAT,2
METRIC
; #@! TA.AperFunction,Plated,PTH,ViaDrill
T1C0.300
; #@! TA.AperFunction,Plated,PTH,ComponentDrill
T2C0.700
; #@! TA.AperFunction,Plated,PTH,ComponentDrill
T3C1.000
; #@! TA.AperFunction,Plated,PTH,ComponentDrill
T4C1.150
; #@! TA.AperFunction,Plated,PTH,ComponentDrill
T5C2.000
%
G90
G05
T1
X103.5Y-75.5
X103.5Y-76.5
X104.5Y-74.5
X104.5Y-77.5
X105.5Y-73.5
X105.5Y-78.5
X106.5Y-64.5
X106.5Y-65.5
X106.5Y-66.5
X106.5Y-67.5
X106.5Y-68.5
X106.5Y-69.5
X106.5Y-70.5
X106.5Y-71.5
X106.5Y-72.5
X107.0Y-78.5
X107.6Y-47.7
X107.6Y-60.4
X107.7Y-54.1
X108.8Y-47.5
X111.3Y-54.2
X111.4Y-57.3
X111.5Y-50.5
X112.1Y-42.7
X112.1Y-43.7
X112.3Y-41.1
X113.2Y-43.7
X115.0Y-79.0
X115.3Y-43.9
X117.0Y-79.0
X117.8Y-69.0
X118.9Y-59.4
X119.0Y-79.0
X119.7Y-60.1
X120.9Y-64.3
X121.0Y-79.0
X123.0Y-59.8
X123.0Y-79.0
X123.5Y-51.3
X125.0Y-79.0
X125.2Y-64.2
X125.6Y-62.4
X126.2Y-67.3
X126.2Y-68.6
X126.205Y-73.605
X126.5Y-64.7
X126.508Y-66.07
X127.0Y-79.0
X127.2Y-48.8
X127.2Y-49.8
X127.4Y-66.1
X127.5Y-64.7
X127.8Y-68.6
X127.9Y-67.3
X127.9Y-77.7
X128.1Y-61.1
X128.3Y-51.3
X128.4Y-72.0
X129.0Y-79.0
X130.4Y-53.6
X131.0Y-79.0
X131.7Y-62.7
X132.4Y-45.7
X132.7Y-69.1
X132.8Y-72.5
X133.0Y-79.0
X134.5Y-51.7
X134.6Y-41.0
X135.0Y-79.0
X135.1Y-49.6
X135.4Y-64.7
X135.595Y-48.5
X135.9Y-54.2
X136.1Y-43.1
X136.58Y-48.536
X137.0Y-79.0
X137.9Y-45.6
X138.1Y-51.9
X138.8Y-41.0
X138.8Y-43.0
X139.0Y-79.0
X139.1Y-48.8
X139.2Y-64.7
X139.55Y-44.604
X139.6Y-41.7
X139.6Y-72.6
X140.1Y-56.4
X141.0Y-79.0
X141.3Y-41.1
X143.0Y-79.0
X143.9Y-45.4
X144.5Y-41.8
X144.5Y-59.5
X144.6Y-46.8
X145.0Y-78.5
X145.6Y-49.0
X146.0Y-77.5
X146.7Y-46.3
X147.0Y-76.5
X147.8Y-44.2
X148.0Y-75.5
X149.0Y-50.5
X149.0Y-53.5
X149.0Y-55.0
X149.0Y-56.5
X149.0Y-58.0
X149.0Y-59.5
X149.0Y-61.0
X149.0Y-62.5
X149.0Y-64.0
X149.0Y-65.5
X149.0Y-69.5
X149.0Y-72.0
X149.0Y-74.5
X149.1Y-46.3
T2
X142.4Y-51.175
X143.2Y-52.925
X144.0Y-51.175
X144.8Y-52.925
X145.6Y-51.175
T3
X105.7Y-75.9
X107.1Y-41.3
X107.1Y-43.3
X109.3Y-66.7
X109.3Y-70.5
X109.3Y-74.3
X109.3Y-77.9
X110.0Y-41.3
X110.0Y-43.3
X112.9Y-66.7
X112.9Y-70.5
X112.9Y-74.3
X112.9Y-77.9
X115.5Y-42.3
X117.7Y-42.3
X120.1Y-42.3
X122.3Y-42.3
X124.6Y-42.3
X143.6Y-70.045
X143.6Y-72.585
X143.6Y-75.125
X144.09Y-62.14
X144.1Y-57.06
X147.4Y-66.845
X147.4Y-69.385
X147.4Y-71.925
T4
X130.36Y-57.75
X132.9Y-57.75
X135.44Y-57.75
T5
X140.35Y-52.05
X147.65Y-52.05
T0
M30
