%TF.GenerationSoftware,KiCad,Pcbnew,(5.99.0-12255-gad1ee958b0)*%
%TF.CreationDate,2022-02-21T16:34:28+02:00*%
%TF.ProjectId,pmr710-baseplate,706d7237-3130-42d6-9261-7365706c6174,rev?*%
%TF.SameCoordinates,Original*%
%TF.FileFunction,Copper,L2,Bot*%
%TF.FilePolarity,Positive*%
%FSLAX46Y46*%
G04 Gerber Fmt 4.6, Leading zero omitted, Abs format (unit mm)*
G04 Created by KiCad (PCBNEW (5.99.0-12255-gad1ee958b0)) date 2022-02-21 16:34:28*
%MOMM*%
%LPD*%
G01*
G04 APERTURE LIST*
%TA.AperFunction,ComponentPad*%
%ADD10R,1.100000X1.100000*%
%TD*%
%TA.AperFunction,ComponentPad*%
%ADD11C,1.100000*%
%TD*%
%TA.AperFunction,ComponentPad*%
%ADD12C,2.400000*%
%TD*%
%TA.AperFunction,ComponentPad*%
%ADD13C,2.000000*%
%TD*%
%TA.AperFunction,ComponentPad*%
%ADD14R,1.700000X1.700000*%
%TD*%
%TA.AperFunction,ComponentPad*%
%ADD15O,1.700000X1.700000*%
%TD*%
%TA.AperFunction,ViaPad*%
%ADD16C,0.600000*%
%TD*%
%TA.AperFunction,Conductor*%
%ADD17C,0.127000*%
%TD*%
%TA.AperFunction,Conductor*%
%ADD18C,0.500000*%
%TD*%
%TA.AperFunction,Conductor*%
%ADD19C,0.200000*%
%TD*%
G04 APERTURE END LIST*
D10*
%TO.P,J1,1,VBUS*%
%TO.N,+5V*%
X145600000Y-51175000D03*
D11*
%TO.P,J1,2,D-*%
%TO.N,Net-(J1-Pad2)*%
X144800000Y-52925000D03*
%TO.P,J1,3,D+*%
%TO.N,Net-(J1-Pad3)*%
X144000000Y-51175000D03*
%TO.P,J1,4,ID*%
%TO.N,unconnected-(J1-Pad4)*%
X143200000Y-52925000D03*
%TO.P,J1,5,GND*%
%TO.N,GND*%
X142400000Y-51175000D03*
D12*
%TO.P,J1,6,Shield*%
X140350000Y-52050000D03*
X147650000Y-52050000D03*
%TD*%
D13*
%TO.P,F1,1*%
%TO.N,Net-(F1-Pad1)*%
X144090000Y-62140000D03*
%TO.P,F1,2*%
%TO.N,+24V*%
X144100000Y-57060000D03*
%TD*%
D14*
%TO.P,J3,1,Pin_1*%
%TO.N,BUT_1*%
X107100000Y-43300000D03*
%TD*%
%TO.P,P2,1,P1*%
%TO.N,Net-(P2-Pad1)*%
X143600000Y-75125000D03*
D15*
%TO.P,P2,2,P2*%
%TO.N,GND*%
X143600000Y-72585000D03*
%TO.P,P2,3,P3*%
%TO.N,Net-(P2-Pad3)*%
X143600000Y-70045000D03*
%TD*%
D14*
%TO.P,J15,1,Pin_1*%
%TO.N,Net-(U5-Pad13)*%
X109300000Y-70500000D03*
%TD*%
%TO.P,J9,1,Pin_1*%
%TO.N,BUT_7*%
X124600000Y-42300000D03*
%TD*%
%TO.P,J6,1,Pin_1*%
%TO.N,BUT_4*%
X117700000Y-42300000D03*
%TD*%
%TO.P,J8,1,Pin_1*%
%TO.N,BUT_6*%
X122300000Y-42300000D03*
%TD*%
%TO.P,J13,1,Pin_1*%
%TO.N,Net-(U5-Pad15)*%
X109300000Y-74300000D03*
%TD*%
%TO.P,P1,1,P1*%
%TO.N,GND*%
X147400000Y-71925000D03*
D15*
%TO.P,P1,2,P2*%
X147400000Y-69385000D03*
%TO.P,P1,3,P3*%
%TO.N,Net-(F1-Pad1)*%
X147400000Y-66845000D03*
%TD*%
D14*
%TO.P,J14,1,Pin_1*%
%TO.N,Net-(U5-Pad14)*%
X112900000Y-70500000D03*
%TD*%
%TO.P,J18,1,Pin_1*%
%TO.N,+3V3*%
X107100000Y-41300000D03*
%TD*%
%TO.P,J7,1,Pin_1*%
%TO.N,BUT_5*%
X120100000Y-42300000D03*
%TD*%
%TO.P,J17,1,Pin_1*%
%TO.N,Net-(U5-Pad11)*%
X112900000Y-66700000D03*
%TD*%
%TO.P,J10,1,Pin_1*%
%TO.N,Net-(U5-Pad18)*%
X112900000Y-77900000D03*
%TD*%
%TO.P,J11,1,Pin_1*%
%TO.N,Net-(U5-Pad17)*%
X112900000Y-74300000D03*
%TD*%
%TO.P,J12,1,Pin_1*%
%TO.N,Net-(U5-Pad16)*%
X109300000Y-77900000D03*
%TD*%
%TO.P,J4,1,Pin_1*%
%TO.N,BUT_2*%
X115500000Y-42300000D03*
%TD*%
%TO.P,J2,1,Pin_1*%
%TO.N,BUT_0*%
X110000000Y-43300000D03*
%TD*%
%TO.P,J5,1,Pin_1*%
%TO.N,BUT_3*%
X110000000Y-41300000D03*
%TD*%
D13*
%TO.P,U2,1,VIN*%
%TO.N,Net-(C2-Pad1)*%
X130360000Y-57750000D03*
%TO.P,U2,2,GND*%
%TO.N,GND*%
X132900000Y-57750000D03*
%TO.P,U2,3,VOUT*%
%TO.N,+3V3*%
X135440000Y-57750000D03*
%TD*%
D14*
%TO.P,J16,1,Pin_1*%
%TO.N,Net-(U5-Pad12)*%
X109300000Y-66700000D03*
%TD*%
%TO.P,J19,1,Pin_1*%
%TO.N,GND*%
X105700000Y-75900000D03*
%TD*%
D16*
%TO.N,GND*%
X106500000Y-67500000D03*
X138100000Y-51900000D03*
X106500000Y-72500000D03*
X106500000Y-64500000D03*
X107000000Y-78500000D03*
X123000000Y-79000000D03*
X106500000Y-65500000D03*
X145000000Y-78500000D03*
X131000000Y-79000000D03*
X127000000Y-79000000D03*
X111300000Y-54200000D03*
X131700000Y-62700000D03*
X149000000Y-74500000D03*
X125000000Y-79000000D03*
X132400000Y-45700000D03*
X104500000Y-77500000D03*
X149000000Y-64000000D03*
X149000000Y-55000000D03*
X125200000Y-64200000D03*
X137000000Y-79000000D03*
X117000000Y-79000000D03*
X149000000Y-72000000D03*
X139100000Y-48800000D03*
X137900000Y-45600000D03*
X123000000Y-59800000D03*
X132700000Y-69100000D03*
X105500000Y-73500000D03*
X149000000Y-53500000D03*
X147800000Y-44200000D03*
X127200000Y-49800000D03*
X103500000Y-76500000D03*
X115000000Y-79000000D03*
X140100000Y-56400000D03*
X136580001Y-48535857D03*
X125600000Y-62400000D03*
X149000000Y-56500000D03*
X149100000Y-46300000D03*
X106500000Y-68500000D03*
X149000000Y-58000000D03*
X149000000Y-69500000D03*
X139600000Y-72600000D03*
X135594989Y-48500000D03*
X106500000Y-69500000D03*
X145600000Y-49000000D03*
X148000000Y-75500000D03*
X104500000Y-74500000D03*
X127900000Y-77700000D03*
X121000000Y-79000000D03*
X117800000Y-69000000D03*
X132800000Y-72500000D03*
X105500000Y-78500000D03*
X130400000Y-53600000D03*
X106500000Y-71500000D03*
X106500000Y-70500000D03*
X147000000Y-76500000D03*
X146000000Y-77500000D03*
X149000000Y-65500000D03*
X133000000Y-79000000D03*
X149000000Y-59500000D03*
X112300000Y-41100000D03*
X111400000Y-57300000D03*
X107600000Y-47700000D03*
X135100000Y-49600000D03*
X103500000Y-75500000D03*
X149000000Y-62500000D03*
X111500000Y-50500000D03*
X136100000Y-43100000D03*
X135000000Y-79000000D03*
X106500000Y-66500000D03*
X149000000Y-50500000D03*
X107600000Y-60400000D03*
X149000000Y-61000000D03*
X144500000Y-59500000D03*
X107700000Y-54100000D03*
X135900000Y-54200000D03*
X143000000Y-79000000D03*
X141000000Y-79000000D03*
X139000000Y-79000000D03*
X127200000Y-48800000D03*
X129000000Y-79000000D03*
X141300000Y-41100000D03*
X144500000Y-41800000D03*
X119000000Y-79000000D03*
%TO.N,Net-(C7-Pad2)*%
X138800000Y-41000000D03*
X138800000Y-43000000D03*
%TO.N,+5V*%
X146700000Y-46300000D03*
X139550500Y-44604085D03*
X139600000Y-41700000D03*
%TO.N,TXD_0*%
X113200000Y-43700000D03*
X112100000Y-43700000D03*
%TO.N,ESP_EN*%
X123500000Y-51300000D03*
X128300000Y-51300000D03*
%TO.N,Net-(Q9-Pad2)*%
X143900000Y-45400000D03*
X144600000Y-46800000D03*
%TO.N,+3V3*%
X134500000Y-51700000D03*
X128100000Y-61100000D03*
X119700000Y-60100000D03*
X134600000Y-41000000D03*
X108800000Y-47500000D03*
%TO.N,+24V*%
X135400000Y-64700000D03*
X139200000Y-64700000D03*
%TO.N,RO*%
X126204604Y-73604761D03*
X128400000Y-72000000D03*
%TO.N,~{RX}TX*%
X126200000Y-67300000D03*
X127900000Y-67300000D03*
%TO.N,DI*%
X127800000Y-68600000D03*
X118900000Y-59400000D03*
X126200000Y-68600000D03*
X120900000Y-64300000D03*
%TO.N,BUT_3*%
X115300000Y-43900000D03*
X112100000Y-42700000D03*
%TO.N,LED_1*%
X126507674Y-66069691D03*
X126500000Y-64700000D03*
%TO.N,LED_0*%
X127400000Y-66100000D03*
X127500000Y-64700000D03*
%TD*%
D17*
%TO.N,Net-(C7-Pad2)*%
X138800000Y-41000000D02*
X138800000Y-43000000D01*
%TO.N,+5V*%
X146700000Y-46300000D02*
X145004085Y-44604085D01*
X145004085Y-44604085D02*
X139550500Y-44604085D01*
X139600000Y-44554585D02*
X139550500Y-44604085D01*
X139600000Y-41700000D02*
X139600000Y-44554585D01*
%TO.N,TXD_0*%
X113200000Y-43700000D02*
X112100000Y-43700000D01*
%TO.N,ESP_EN*%
X128300000Y-51300000D02*
X123500000Y-51300000D01*
%TO.N,Net-(Q9-Pad2)*%
X143900000Y-45400000D02*
X144600000Y-46100000D01*
X144600000Y-46100000D02*
X144600000Y-46800000D01*
D18*
%TO.N,+3V3*%
X128100000Y-61100000D02*
X120700000Y-61100000D01*
X108773489Y-41623489D02*
X108450000Y-41300000D01*
X108800000Y-47500000D02*
X108773489Y-47473489D01*
D17*
X134600000Y-41000000D02*
X134600000Y-51600000D01*
D18*
X108450000Y-41300000D02*
X107100000Y-41300000D01*
X108773489Y-47473489D02*
X108773489Y-41623489D01*
X120700000Y-61100000D02*
X119700000Y-60100000D01*
D17*
X134600000Y-51600000D02*
X134500000Y-51700000D01*
D18*
%TO.N,+24V*%
X139200000Y-64700000D02*
X135400000Y-64700000D01*
D17*
%TO.N,RO*%
X126795239Y-73604761D02*
X128400000Y-72000000D01*
X126204604Y-73604761D02*
X126795239Y-73604761D01*
%TO.N,~{RX}TX*%
X126200000Y-67300000D02*
X127900000Y-67300000D01*
%TO.N,DI*%
X126200000Y-68600000D02*
X127800000Y-68600000D01*
X118900000Y-59400000D02*
X118900000Y-62300000D01*
X118900000Y-62300000D02*
X120900000Y-64300000D01*
D19*
%TO.N,BUT_3*%
X114400000Y-43900000D02*
X113500000Y-43000000D01*
X113500000Y-43000000D02*
X113200000Y-42700000D01*
X113200000Y-42700000D02*
X112100000Y-42700000D01*
X115300000Y-43900000D02*
X114400000Y-43900000D01*
D17*
%TO.N,LED_1*%
X126500000Y-64700000D02*
X126500000Y-66062017D01*
X126500000Y-66062017D02*
X126507674Y-66069691D01*
%TO.N,LED_0*%
X127400000Y-66100000D02*
X127400000Y-64800000D01*
X127400000Y-64800000D02*
X127500000Y-64700000D01*
%TD*%
%TA.AperFunction,Conductor*%
%TO.N,GND*%
G36*
X133806812Y-40528002D02*
G01*
X133853305Y-40581658D01*
X133863409Y-40651932D01*
X133857092Y-40677095D01*
X133809197Y-40808685D01*
X133786463Y-40988640D01*
X133804163Y-41169160D01*
X133861418Y-41341273D01*
X133865065Y-41347295D01*
X133865066Y-41347297D01*
X133900184Y-41405283D01*
X133955380Y-41496424D01*
X133975357Y-41517111D01*
X133992637Y-41535005D01*
X134025569Y-41597902D01*
X134028000Y-41622532D01*
X134028000Y-50977584D01*
X134007998Y-51045705D01*
X133990162Y-51067603D01*
X133869493Y-51185771D01*
X133771235Y-51338238D01*
X133768826Y-51344858D01*
X133768824Y-51344861D01*
X133731299Y-51447961D01*
X133709197Y-51508685D01*
X133686463Y-51688640D01*
X133704163Y-51869160D01*
X133761418Y-52041273D01*
X133765065Y-52047295D01*
X133765066Y-52047297D01*
X133842778Y-52175615D01*
X133855380Y-52196424D01*
X133860269Y-52201487D01*
X133860270Y-52201488D01*
X133910500Y-52253502D01*
X133981382Y-52326902D01*
X134019242Y-52351677D01*
X134126741Y-52422022D01*
X134133159Y-52426222D01*
X134139763Y-52428678D01*
X134139765Y-52428679D01*
X134296558Y-52486990D01*
X134296560Y-52486990D01*
X134303168Y-52489448D01*
X134386995Y-52500633D01*
X134475980Y-52512507D01*
X134475984Y-52512507D01*
X134482961Y-52513438D01*
X134489972Y-52512800D01*
X134489976Y-52512800D01*
X134632459Y-52499832D01*
X134663600Y-52496998D01*
X134670302Y-52494820D01*
X134670304Y-52494820D01*
X134829409Y-52443124D01*
X134829412Y-52443123D01*
X134836108Y-52440947D01*
X134991912Y-52348069D01*
X135123266Y-52222982D01*
X135223643Y-52071902D01*
X135247220Y-52009835D01*
X138638022Y-52009835D01*
X138649754Y-52254064D01*
X138650891Y-52263324D01*
X138698593Y-52503143D01*
X138701082Y-52512118D01*
X138783708Y-52742250D01*
X138787505Y-52750778D01*
X138903234Y-52966160D01*
X138908245Y-52974027D01*
X138965173Y-53050263D01*
X138976431Y-53058712D01*
X138988850Y-53051940D01*
X139977978Y-52062812D01*
X139985592Y-52048868D01*
X139985461Y-52047035D01*
X139981210Y-52040420D01*
X138986828Y-51046038D01*
X138973520Y-51038771D01*
X138963481Y-51045893D01*
X138958581Y-51051784D01*
X138953168Y-51059373D01*
X138826322Y-51268409D01*
X138822084Y-51276726D01*
X138727529Y-51502214D01*
X138724572Y-51511052D01*
X138664384Y-51748042D01*
X138662763Y-51757232D01*
X138638267Y-52000510D01*
X138638022Y-52009835D01*
X135247220Y-52009835D01*
X135274194Y-51938827D01*
X135285555Y-51908920D01*
X135285556Y-51908918D01*
X135288055Y-51902338D01*
X135291164Y-51880218D01*
X135312748Y-51726639D01*
X135312748Y-51726636D01*
X135313299Y-51722717D01*
X135313616Y-51700000D01*
X135293397Y-51519745D01*
X135290370Y-51511052D01*
X135236064Y-51355106D01*
X135236062Y-51355103D01*
X135233745Y-51348448D01*
X135191144Y-51280272D01*
X135172000Y-51213505D01*
X135172000Y-50674917D01*
X139339330Y-50674917D01*
X139343903Y-50684693D01*
X141713732Y-53054522D01*
X141726112Y-53061282D01*
X141734453Y-53055038D01*
X141852700Y-52871202D01*
X141857150Y-52863006D01*
X141906608Y-52753213D01*
X141952823Y-52699318D01*
X142020840Y-52678965D01*
X142089063Y-52698615D01*
X142135832Y-52752030D01*
X142146705Y-52819008D01*
X142136482Y-52910150D01*
X142137729Y-52925000D01*
X142148649Y-53055038D01*
X142153852Y-53117004D01*
X142211069Y-53316545D01*
X142213887Y-53322027D01*
X142213888Y-53322031D01*
X142273558Y-53438135D01*
X142305955Y-53501173D01*
X142434894Y-53663854D01*
X142439581Y-53667843D01*
X142439584Y-53667846D01*
X142549319Y-53761237D01*
X142592976Y-53798392D01*
X142774180Y-53899664D01*
X142971603Y-53963810D01*
X143177725Y-53988389D01*
X143183860Y-53987917D01*
X143183862Y-53987917D01*
X143378555Y-53972936D01*
X143378560Y-53972935D01*
X143384696Y-53972463D01*
X143390626Y-53970807D01*
X143390628Y-53970807D01*
X143484664Y-53944551D01*
X143584632Y-53916640D01*
X143769917Y-53823046D01*
X143924616Y-53702182D01*
X143990608Y-53676006D01*
X144060279Y-53689664D01*
X144083850Y-53705519D01*
X144137182Y-53750908D01*
X144192976Y-53798392D01*
X144374180Y-53899664D01*
X144571603Y-53963810D01*
X144777725Y-53988389D01*
X144783860Y-53987917D01*
X144783862Y-53987917D01*
X144978555Y-53972936D01*
X144978560Y-53972935D01*
X144984696Y-53972463D01*
X144990626Y-53970807D01*
X144990628Y-53970807D01*
X145084664Y-53944551D01*
X145184632Y-53916640D01*
X145369917Y-53823046D01*
X145520345Y-53705519D01*
X145528634Y-53699043D01*
X145528635Y-53699042D01*
X145533495Y-53695245D01*
X145669133Y-53538106D01*
X145734319Y-53423359D01*
X146641386Y-53423359D01*
X146650099Y-53434879D01*
X146738586Y-53499760D01*
X146746505Y-53504708D01*
X146962877Y-53618547D01*
X146971451Y-53622275D01*
X147202282Y-53702885D01*
X147211291Y-53705299D01*
X147451518Y-53750908D01*
X147460775Y-53751962D01*
X147705107Y-53761563D01*
X147714420Y-53761237D01*
X147957478Y-53734618D01*
X147966655Y-53732917D01*
X148203107Y-53670665D01*
X148211926Y-53667628D01*
X148436584Y-53571107D01*
X148444856Y-53566800D01*
X148652777Y-53438135D01*
X148654620Y-53436796D01*
X148662038Y-53425541D01*
X148655974Y-53415184D01*
X147662812Y-52422022D01*
X147648868Y-52414408D01*
X147647035Y-52414539D01*
X147640420Y-52418790D01*
X146648044Y-53411166D01*
X146641386Y-53423359D01*
X145734319Y-53423359D01*
X145771667Y-53357614D01*
X145837190Y-53160644D01*
X145863207Y-52954698D01*
X145863622Y-52925000D01*
X145857544Y-52863011D01*
X145854146Y-52828353D01*
X145867406Y-52758606D01*
X145916268Y-52707099D01*
X145985221Y-52690186D01*
X146052372Y-52713236D01*
X146090537Y-52756420D01*
X146203234Y-52966161D01*
X146208245Y-52974027D01*
X146265173Y-53050263D01*
X146276431Y-53058712D01*
X146288850Y-53051940D01*
X148652488Y-50688302D01*
X148658872Y-50676612D01*
X148649460Y-50664502D01*
X148523144Y-50576873D01*
X148515116Y-50572145D01*
X148295810Y-50463995D01*
X148287177Y-50460507D01*
X148054288Y-50385958D01*
X148045238Y-50383785D01*
X147803891Y-50344480D01*
X147794602Y-50343668D01*
X147550114Y-50340467D01*
X147540803Y-50341037D01*
X147298522Y-50374010D01*
X147289403Y-50375948D01*
X147054668Y-50444367D01*
X147045915Y-50447639D01*
X146823862Y-50550007D01*
X146820098Y-50552093D01*
X146750820Y-50567621D01*
X146684145Y-50543229D01*
X146641036Y-50486117D01*
X146603768Y-50386705D01*
X146603767Y-50386704D01*
X146600615Y-50378295D01*
X146513261Y-50261739D01*
X146396705Y-50174385D01*
X146260316Y-50123255D01*
X146198134Y-50116500D01*
X145001866Y-50116500D01*
X144939684Y-50123255D01*
X144803295Y-50174385D01*
X144713230Y-50241885D01*
X144688340Y-50260539D01*
X144621834Y-50285387D01*
X144552847Y-50270549D01*
X144485867Y-50234334D01*
X144412170Y-50194486D01*
X144213871Y-50133102D01*
X144207746Y-50132458D01*
X144207745Y-50132458D01*
X144013554Y-50112048D01*
X144013552Y-50112048D01*
X144007425Y-50111404D01*
X143947376Y-50116869D01*
X143806836Y-50129659D01*
X143806833Y-50129660D01*
X143800697Y-50130218D01*
X143794791Y-50131956D01*
X143794787Y-50131957D01*
X143661339Y-50171233D01*
X143601560Y-50188827D01*
X143417600Y-50284999D01*
X143255823Y-50415071D01*
X143251865Y-50419788D01*
X143251863Y-50419790D01*
X143214771Y-50463995D01*
X143122391Y-50574089D01*
X143119427Y-50579481D01*
X143119424Y-50579485D01*
X143058237Y-50690784D01*
X143022387Y-50755995D01*
X142959621Y-50953861D01*
X142957050Y-50953046D01*
X142928415Y-51005795D01*
X142489095Y-51445115D01*
X142426783Y-51479141D01*
X142355968Y-51474076D01*
X142310905Y-51445115D01*
X141506302Y-50640512D01*
X141493922Y-50633752D01*
X141475825Y-50647299D01*
X141409304Y-50672110D01*
X141339930Y-50657018D01*
X141328496Y-50649958D01*
X141223151Y-50576877D01*
X141215115Y-50572144D01*
X140995810Y-50463995D01*
X140987177Y-50460507D01*
X140754288Y-50385958D01*
X140745238Y-50383785D01*
X140503891Y-50344480D01*
X140494602Y-50343668D01*
X140250114Y-50340467D01*
X140240803Y-50341037D01*
X139998522Y-50374010D01*
X139989403Y-50375948D01*
X139754668Y-50444367D01*
X139745915Y-50447639D01*
X139523869Y-50550004D01*
X139515714Y-50554524D01*
X139348468Y-50664175D01*
X139339330Y-50674917D01*
X135172000Y-50674917D01*
X135172000Y-50269047D01*
X141857766Y-50269047D01*
X141860221Y-50276011D01*
X142387188Y-50802978D01*
X142401132Y-50810592D01*
X142402965Y-50810461D01*
X142409580Y-50806210D01*
X142934729Y-50281061D01*
X142941489Y-50268681D01*
X142936830Y-50262458D01*
X142817395Y-50197881D01*
X142806088Y-50193128D01*
X142619656Y-50135417D01*
X142607644Y-50132951D01*
X142413550Y-50112551D01*
X142401282Y-50112466D01*
X142206930Y-50130153D01*
X142194881Y-50132451D01*
X142007658Y-50187554D01*
X141996290Y-50192147D01*
X141867915Y-50259260D01*
X141857766Y-50269047D01*
X135172000Y-50269047D01*
X135172000Y-41625806D01*
X135192002Y-41557685D01*
X135211108Y-41534561D01*
X135218159Y-41527847D01*
X135218166Y-41527839D01*
X135223266Y-41522982D01*
X135323643Y-41371902D01*
X135388055Y-41202338D01*
X135389139Y-41194624D01*
X135412748Y-41026639D01*
X135412748Y-41026636D01*
X135413299Y-41022717D01*
X135413452Y-41011738D01*
X135413561Y-41003962D01*
X135413561Y-41003957D01*
X135413616Y-41000000D01*
X135393397Y-40819745D01*
X135343143Y-40675435D01*
X135339630Y-40604527D01*
X135375012Y-40542975D01*
X135438054Y-40510323D01*
X135462135Y-40508000D01*
X137938691Y-40508000D01*
X138006812Y-40528002D01*
X138053305Y-40581658D01*
X138063409Y-40651932D01*
X138057092Y-40677095D01*
X138009197Y-40808685D01*
X137986463Y-40988640D01*
X138004163Y-41169160D01*
X138061418Y-41341273D01*
X138065065Y-41347295D01*
X138065066Y-41347297D01*
X138100184Y-41405283D01*
X138155380Y-41496424D01*
X138175357Y-41517111D01*
X138192637Y-41535005D01*
X138225569Y-41597902D01*
X138228000Y-41622532D01*
X138228000Y-42375511D01*
X138207998Y-42443632D01*
X138190158Y-42465534D01*
X138174530Y-42480838D01*
X138169493Y-42485771D01*
X138071235Y-42638238D01*
X138009197Y-42808685D01*
X137986463Y-42988640D01*
X138004163Y-43169160D01*
X138061418Y-43341273D01*
X138065065Y-43347295D01*
X138065066Y-43347297D01*
X138094989Y-43396705D01*
X138155380Y-43496424D01*
X138160269Y-43501487D01*
X138160270Y-43501488D01*
X138171639Y-43513261D01*
X138281382Y-43626902D01*
X138433159Y-43726222D01*
X138439763Y-43728678D01*
X138439765Y-43728679D01*
X138596558Y-43786990D01*
X138596560Y-43786990D01*
X138603168Y-43789448D01*
X138686995Y-43800633D01*
X138775980Y-43812507D01*
X138775984Y-43812507D01*
X138782961Y-43813438D01*
X138789972Y-43812800D01*
X138789976Y-43812800D01*
X138890580Y-43803644D01*
X138960234Y-43817389D01*
X139011398Y-43866610D01*
X139028000Y-43929125D01*
X139028000Y-43931123D01*
X139007998Y-43999244D01*
X138990159Y-44021145D01*
X138919993Y-44089856D01*
X138821735Y-44242323D01*
X138819326Y-44248943D01*
X138819324Y-44248946D01*
X138783246Y-44348069D01*
X138759697Y-44412770D01*
X138736963Y-44592725D01*
X138754663Y-44773245D01*
X138811918Y-44945358D01*
X138815565Y-44951380D01*
X138815566Y-44951382D01*
X138879495Y-45056941D01*
X138905880Y-45100509D01*
X138910769Y-45105572D01*
X138910770Y-45105573D01*
X138978863Y-45176085D01*
X139031882Y-45230987D01*
X139183659Y-45330307D01*
X139190263Y-45332763D01*
X139190265Y-45332764D01*
X139347058Y-45391075D01*
X139347060Y-45391075D01*
X139353668Y-45393533D01*
X139436767Y-45404621D01*
X139526480Y-45416592D01*
X139526484Y-45416592D01*
X139533461Y-45417523D01*
X139540472Y-45416885D01*
X139540476Y-45416885D01*
X139682959Y-45403917D01*
X139714100Y-45401083D01*
X139720802Y-45398905D01*
X139720804Y-45398905D01*
X139879909Y-45347209D01*
X139879912Y-45347208D01*
X139886608Y-45345032D01*
X140042412Y-45252154D01*
X140085798Y-45210838D01*
X140148921Y-45178347D01*
X140172688Y-45176085D01*
X142970397Y-45176085D01*
X143038518Y-45196087D01*
X143085011Y-45249743D01*
X143095403Y-45317876D01*
X143086463Y-45388640D01*
X143104163Y-45569160D01*
X143161418Y-45741273D01*
X143255380Y-45896424D01*
X143260269Y-45901487D01*
X143260270Y-45901488D01*
X143305619Y-45948448D01*
X143381382Y-46026902D01*
X143387278Y-46030760D01*
X143513093Y-46113091D01*
X143533159Y-46126222D01*
X143539763Y-46128678D01*
X143539765Y-46128679D01*
X143696558Y-46186990D01*
X143696560Y-46186990D01*
X143703168Y-46189448D01*
X143710153Y-46190380D01*
X143710157Y-46190381D01*
X143795412Y-46201756D01*
X143808766Y-46203538D01*
X143873643Y-46232374D01*
X143912631Y-46291707D01*
X143913352Y-46362700D01*
X143898014Y-46396685D01*
X143871235Y-46438238D01*
X143868826Y-46444858D01*
X143868824Y-46444861D01*
X143811606Y-46602066D01*
X143809197Y-46608685D01*
X143786463Y-46788640D01*
X143804163Y-46969160D01*
X143861418Y-47141273D01*
X143865065Y-47147295D01*
X143865066Y-47147297D01*
X143875978Y-47165314D01*
X143955380Y-47296424D01*
X143960269Y-47301487D01*
X143960270Y-47301488D01*
X143975357Y-47317111D01*
X144081382Y-47426902D01*
X144087278Y-47430760D01*
X144193088Y-47500000D01*
X144233159Y-47526222D01*
X144239763Y-47528678D01*
X144239765Y-47528679D01*
X144396558Y-47586990D01*
X144396560Y-47586990D01*
X144403168Y-47589448D01*
X144486995Y-47600633D01*
X144575980Y-47612507D01*
X144575984Y-47612507D01*
X144582961Y-47613438D01*
X144589972Y-47612800D01*
X144589976Y-47612800D01*
X144732459Y-47599832D01*
X144763600Y-47596998D01*
X144770302Y-47594820D01*
X144770304Y-47594820D01*
X144929409Y-47543124D01*
X144929412Y-47543123D01*
X144936108Y-47540947D01*
X145091912Y-47448069D01*
X145223266Y-47322982D01*
X145323643Y-47171902D01*
X145388055Y-47002338D01*
X145389035Y-46995366D01*
X145412748Y-46826639D01*
X145412748Y-46826636D01*
X145413299Y-46822717D01*
X145413616Y-46800000D01*
X145393397Y-46619745D01*
X145391080Y-46613091D01*
X145336064Y-46455106D01*
X145336062Y-46455103D01*
X145333745Y-46448448D01*
X145327365Y-46438238D01*
X145241359Y-46300598D01*
X145237626Y-46294624D01*
X145208594Y-46265389D01*
X145174787Y-46202959D01*
X145172000Y-46176605D01*
X145172000Y-46145744D01*
X145173078Y-46129298D01*
X145175857Y-46108189D01*
X145175857Y-46108188D01*
X145176935Y-46100000D01*
X145172000Y-46062514D01*
X145172000Y-46062508D01*
X145157277Y-45950678D01*
X145127823Y-45879569D01*
X145120234Y-45808980D01*
X145152013Y-45745493D01*
X145213071Y-45709266D01*
X145284023Y-45711800D01*
X145333327Y-45742257D01*
X145855295Y-46264225D01*
X145889321Y-46326537D01*
X145891599Y-46341024D01*
X145897057Y-46396685D01*
X145904163Y-46469160D01*
X145961418Y-46641273D01*
X145965065Y-46647295D01*
X145965066Y-46647297D01*
X145975978Y-46665314D01*
X146055380Y-46796424D01*
X146181382Y-46926902D01*
X146333159Y-47026222D01*
X146339763Y-47028678D01*
X146339765Y-47028679D01*
X146496558Y-47086990D01*
X146496560Y-47086990D01*
X146503168Y-47089448D01*
X146586995Y-47100633D01*
X146675980Y-47112507D01*
X146675984Y-47112507D01*
X146682961Y-47113438D01*
X146689972Y-47112800D01*
X146689976Y-47112800D01*
X146832459Y-47099832D01*
X146863600Y-47096998D01*
X146870302Y-47094820D01*
X146870304Y-47094820D01*
X147029409Y-47043124D01*
X147029412Y-47043123D01*
X147036108Y-47040947D01*
X147156532Y-46969160D01*
X147185860Y-46951677D01*
X147185862Y-46951676D01*
X147191912Y-46948069D01*
X147323266Y-46822982D01*
X147423643Y-46671902D01*
X147488055Y-46502338D01*
X147489035Y-46495366D01*
X147512748Y-46326639D01*
X147512748Y-46326636D01*
X147513299Y-46322717D01*
X147513616Y-46300000D01*
X147493397Y-46119745D01*
X147459301Y-46021834D01*
X147436064Y-45955106D01*
X147436062Y-45955103D01*
X147433745Y-45948448D01*
X147337626Y-45794624D01*
X147315062Y-45771902D01*
X147214778Y-45670915D01*
X147214774Y-45670912D01*
X147209815Y-45665918D01*
X147056666Y-45568727D01*
X147027463Y-45558328D01*
X146892425Y-45510243D01*
X146892420Y-45510242D01*
X146885790Y-45507881D01*
X146878802Y-45507048D01*
X146878799Y-45507047D01*
X146737256Y-45490169D01*
X146671983Y-45462241D01*
X146663080Y-45454150D01*
X145440901Y-44231971D01*
X145430034Y-44219580D01*
X145417069Y-44202683D01*
X145417066Y-44202680D01*
X145412040Y-44196130D01*
X145347530Y-44146629D01*
X145292553Y-44104444D01*
X145153407Y-44046808D01*
X145122710Y-44042767D01*
X145041588Y-44032086D01*
X145041579Y-44032085D01*
X145041576Y-44032085D01*
X145041564Y-44032084D01*
X145012274Y-44028228D01*
X145012273Y-44028228D01*
X145004085Y-44027150D01*
X144995897Y-44028228D01*
X144995896Y-44028228D01*
X144974787Y-44031007D01*
X144958341Y-44032085D01*
X140298000Y-44032085D01*
X140229879Y-44012083D01*
X140183386Y-43958427D01*
X140172000Y-43906085D01*
X140172000Y-42325806D01*
X140192002Y-42257685D01*
X140211108Y-42234561D01*
X140218159Y-42227847D01*
X140218166Y-42227839D01*
X140223266Y-42222982D01*
X140323643Y-42071902D01*
X140388055Y-41902338D01*
X140390191Y-41887140D01*
X140412748Y-41726639D01*
X140412748Y-41726636D01*
X140413299Y-41722717D01*
X140413616Y-41700000D01*
X140393397Y-41519745D01*
X140385276Y-41496424D01*
X140336064Y-41355106D01*
X140336062Y-41355103D01*
X140333745Y-41348448D01*
X140237626Y-41194624D01*
X140205379Y-41162151D01*
X140114778Y-41070915D01*
X140114774Y-41070912D01*
X140109815Y-41065918D01*
X139956666Y-40968727D01*
X139899174Y-40948255D01*
X139792425Y-40910243D01*
X139792420Y-40910242D01*
X139785790Y-40907881D01*
X139778802Y-40907048D01*
X139778799Y-40907047D01*
X139695263Y-40897086D01*
X139629990Y-40869158D01*
X139591191Y-40813409D01*
X139543144Y-40675437D01*
X139539630Y-40604528D01*
X139575012Y-40542975D01*
X139638054Y-40510323D01*
X139662135Y-40508000D01*
X144737390Y-40508000D01*
X144805511Y-40528002D01*
X144826485Y-40544905D01*
X149455095Y-45173516D01*
X149489121Y-45235828D01*
X149492000Y-45262611D01*
X149492000Y-51402294D01*
X149471998Y-51470415D01*
X149418342Y-51516908D01*
X149348068Y-51527012D01*
X149283488Y-51497518D01*
X149248567Y-51447961D01*
X149197633Y-51316983D01*
X149193619Y-51308567D01*
X149072284Y-51096276D01*
X149067074Y-51088553D01*
X149035787Y-51048865D01*
X149023863Y-51040395D01*
X149012328Y-51046882D01*
X148022022Y-52037188D01*
X148014408Y-52051132D01*
X148014539Y-52052965D01*
X148018790Y-52059580D01*
X149013732Y-53054522D01*
X149026112Y-53061282D01*
X149034453Y-53055038D01*
X149152700Y-52871202D01*
X149157147Y-52863011D01*
X149251118Y-52654404D01*
X149297334Y-52600510D01*
X149365350Y-52580157D01*
X149433573Y-52599807D01*
X149480342Y-52653222D01*
X149492000Y-52706155D01*
X149492000Y-74737389D01*
X149471998Y-74805510D01*
X149455095Y-74826484D01*
X144826485Y-79455095D01*
X144764173Y-79489121D01*
X144737390Y-79492000D01*
X113914488Y-79492000D01*
X113846367Y-79471998D01*
X113799874Y-79418342D01*
X113789770Y-79348068D01*
X113819264Y-79283488D01*
X113870258Y-79248018D01*
X113988297Y-79203767D01*
X113996705Y-79200615D01*
X114113261Y-79113261D01*
X114200615Y-78996705D01*
X114251745Y-78860316D01*
X114258500Y-78798134D01*
X114258500Y-77001866D01*
X114251745Y-76939684D01*
X114200615Y-76803295D01*
X114113261Y-76686739D01*
X113996705Y-76599385D01*
X113860316Y-76548255D01*
X113798134Y-76541500D01*
X112001866Y-76541500D01*
X111939684Y-76548255D01*
X111803295Y-76599385D01*
X111686739Y-76686739D01*
X111599385Y-76803295D01*
X111548255Y-76939684D01*
X111541500Y-77001866D01*
X111541500Y-78798134D01*
X111548255Y-78860316D01*
X111599385Y-78996705D01*
X111686739Y-79113261D01*
X111803295Y-79200615D01*
X111811703Y-79203767D01*
X111929742Y-79248018D01*
X111986506Y-79290660D01*
X112011206Y-79357221D01*
X111995999Y-79426570D01*
X111945713Y-79476688D01*
X111885512Y-79492000D01*
X110314488Y-79492000D01*
X110246367Y-79471998D01*
X110199874Y-79418342D01*
X110189770Y-79348068D01*
X110219264Y-79283488D01*
X110270258Y-79248018D01*
X110388297Y-79203767D01*
X110396705Y-79200615D01*
X110513261Y-79113261D01*
X110600615Y-78996705D01*
X110651745Y-78860316D01*
X110658500Y-78798134D01*
X110658500Y-77001866D01*
X110651745Y-76939684D01*
X110600615Y-76803295D01*
X110513261Y-76686739D01*
X110396705Y-76599385D01*
X110260316Y-76548255D01*
X110198134Y-76541500D01*
X108401866Y-76541500D01*
X108339684Y-76548255D01*
X108203295Y-76599385D01*
X108086739Y-76686739D01*
X107999385Y-76803295D01*
X107948255Y-76939684D01*
X107941500Y-77001866D01*
X107941500Y-78798134D01*
X107948255Y-78860316D01*
X107999385Y-78996705D01*
X108086739Y-79113261D01*
X108203295Y-79200615D01*
X108211703Y-79203767D01*
X108329742Y-79248018D01*
X108386506Y-79290660D01*
X108411206Y-79357221D01*
X108395999Y-79426570D01*
X108345713Y-79476688D01*
X108285512Y-79492000D01*
X105262611Y-79492000D01*
X105194490Y-79471998D01*
X105173516Y-79455095D01*
X101885968Y-76167548D01*
X104342001Y-76167548D01*
X104342001Y-76794669D01*
X104342371Y-76801490D01*
X104347895Y-76852352D01*
X104351521Y-76867604D01*
X104396676Y-76988054D01*
X104405214Y-77003649D01*
X104481715Y-77105724D01*
X104494276Y-77118285D01*
X104596351Y-77194786D01*
X104611946Y-77203324D01*
X104732394Y-77248478D01*
X104747649Y-77252105D01*
X104798514Y-77257631D01*
X104805328Y-77258000D01*
X105427885Y-77258000D01*
X105443124Y-77253525D01*
X105444329Y-77252135D01*
X105446000Y-77244452D01*
X105446000Y-76172115D01*
X105444659Y-76167548D01*
X105954000Y-76167548D01*
X105954000Y-77239884D01*
X105958475Y-77255123D01*
X105959865Y-77256328D01*
X105967548Y-77257999D01*
X106594669Y-77257999D01*
X106601490Y-77257629D01*
X106652352Y-77252105D01*
X106667604Y-77248479D01*
X106788054Y-77203324D01*
X106803649Y-77194786D01*
X106905724Y-77118285D01*
X106918285Y-77105724D01*
X106994786Y-77003649D01*
X107003324Y-76988054D01*
X107048478Y-76867606D01*
X107052105Y-76852351D01*
X107057631Y-76801486D01*
X107058000Y-76794672D01*
X107058000Y-76172115D01*
X107053525Y-76156876D01*
X107052135Y-76155671D01*
X107044452Y-76154000D01*
X105972115Y-76154000D01*
X105956876Y-76158475D01*
X105955671Y-76159865D01*
X105954000Y-76167548D01*
X105444659Y-76167548D01*
X105441525Y-76156876D01*
X105440135Y-76155671D01*
X105432452Y-76154000D01*
X104360116Y-76154000D01*
X104344877Y-76158475D01*
X104343672Y-76159865D01*
X104342001Y-76167548D01*
X101885968Y-76167548D01*
X101543581Y-75825161D01*
X101509555Y-75762849D01*
X101514620Y-75692034D01*
X101552888Y-75638547D01*
X102326822Y-75005328D01*
X104342000Y-75005328D01*
X104342000Y-75627885D01*
X104346475Y-75643124D01*
X104347865Y-75644329D01*
X104355548Y-75646000D01*
X105427885Y-75646000D01*
X105443124Y-75641525D01*
X105444329Y-75640135D01*
X105446000Y-75632452D01*
X105446000Y-74560116D01*
X105444659Y-74555548D01*
X105954000Y-74555548D01*
X105954000Y-75627885D01*
X105958475Y-75643124D01*
X105959865Y-75644329D01*
X105967548Y-75646000D01*
X107039884Y-75646000D01*
X107055123Y-75641525D01*
X107056328Y-75640135D01*
X107057999Y-75632452D01*
X107057999Y-75005331D01*
X107057629Y-74998510D01*
X107052105Y-74947648D01*
X107048479Y-74932396D01*
X107003324Y-74811946D01*
X106994786Y-74796351D01*
X106918285Y-74694276D01*
X106905724Y-74681715D01*
X106803649Y-74605214D01*
X106788054Y-74596676D01*
X106667606Y-74551522D01*
X106652351Y-74547895D01*
X106601486Y-74542369D01*
X106594672Y-74542000D01*
X105972115Y-74542000D01*
X105956876Y-74546475D01*
X105955671Y-74547865D01*
X105954000Y-74555548D01*
X105444659Y-74555548D01*
X105441525Y-74544877D01*
X105440135Y-74543672D01*
X105432452Y-74542001D01*
X104805331Y-74542001D01*
X104798510Y-74542371D01*
X104747648Y-74547895D01*
X104732396Y-74551521D01*
X104611946Y-74596676D01*
X104596351Y-74605214D01*
X104494276Y-74681715D01*
X104481715Y-74694276D01*
X104405214Y-74796351D01*
X104396676Y-74811946D01*
X104351522Y-74932394D01*
X104347895Y-74947649D01*
X104342369Y-74998514D01*
X104342000Y-75005328D01*
X102326822Y-75005328D01*
X104286609Y-73401866D01*
X107941500Y-73401866D01*
X107941500Y-75198134D01*
X107948255Y-75260316D01*
X107999385Y-75396705D01*
X108086739Y-75513261D01*
X108203295Y-75600615D01*
X108339684Y-75651745D01*
X108401866Y-75658500D01*
X110198134Y-75658500D01*
X110260316Y-75651745D01*
X110396705Y-75600615D01*
X110513261Y-75513261D01*
X110600615Y-75396705D01*
X110651745Y-75260316D01*
X110658500Y-75198134D01*
X110658500Y-73401866D01*
X111541500Y-73401866D01*
X111541500Y-75198134D01*
X111548255Y-75260316D01*
X111599385Y-75396705D01*
X111686739Y-75513261D01*
X111803295Y-75600615D01*
X111939684Y-75651745D01*
X112001866Y-75658500D01*
X113798134Y-75658500D01*
X113860316Y-75651745D01*
X113996705Y-75600615D01*
X114113261Y-75513261D01*
X114200615Y-75396705D01*
X114251745Y-75260316D01*
X114258500Y-75198134D01*
X114258500Y-73593401D01*
X125391067Y-73593401D01*
X125408767Y-73773921D01*
X125466022Y-73946034D01*
X125469669Y-73952056D01*
X125469670Y-73952058D01*
X125539520Y-74067394D01*
X125559984Y-74101185D01*
X125564873Y-74106248D01*
X125564874Y-74106249D01*
X125615697Y-74158877D01*
X125685986Y-74231663D01*
X125837763Y-74330983D01*
X125844367Y-74333439D01*
X125844369Y-74333440D01*
X126001162Y-74391751D01*
X126001164Y-74391751D01*
X126007772Y-74394209D01*
X126091599Y-74405394D01*
X126180584Y-74417268D01*
X126180588Y-74417268D01*
X126187565Y-74418199D01*
X126194576Y-74417561D01*
X126194580Y-74417561D01*
X126337063Y-74404593D01*
X126368204Y-74401759D01*
X126374906Y-74399581D01*
X126374908Y-74399581D01*
X126534013Y-74347885D01*
X126534016Y-74347884D01*
X126540712Y-74345708D01*
X126696516Y-74252830D01*
X126723781Y-74226866D01*
X142241500Y-74226866D01*
X142241500Y-76023134D01*
X142248255Y-76085316D01*
X142299385Y-76221705D01*
X142386739Y-76338261D01*
X142503295Y-76425615D01*
X142639684Y-76476745D01*
X142701866Y-76483500D01*
X144498134Y-76483500D01*
X144560316Y-76476745D01*
X144696705Y-76425615D01*
X144813261Y-76338261D01*
X144900615Y-76221705D01*
X144951745Y-76085316D01*
X144958500Y-76023134D01*
X144958500Y-74226866D01*
X144951745Y-74164684D01*
X144900615Y-74028295D01*
X144813261Y-73911739D01*
X144696705Y-73824385D01*
X144577687Y-73779767D01*
X144520923Y-73737125D01*
X144496223Y-73670564D01*
X144511430Y-73601215D01*
X144532977Y-73572535D01*
X144634052Y-73471812D01*
X144640730Y-73463965D01*
X144765003Y-73291020D01*
X144770313Y-73282183D01*
X144864670Y-73091267D01*
X144868469Y-73081672D01*
X144930377Y-72877910D01*
X144932555Y-72867837D01*
X144933986Y-72856962D01*
X144931775Y-72842778D01*
X144918617Y-72839000D01*
X142283225Y-72839000D01*
X142269694Y-72842973D01*
X142268257Y-72852966D01*
X142298565Y-72987446D01*
X142301645Y-72997275D01*
X142381770Y-73194603D01*
X142386413Y-73203794D01*
X142497694Y-73385388D01*
X142503777Y-73393699D01*
X142643213Y-73554667D01*
X142650577Y-73561879D01*
X142655522Y-73565985D01*
X142695156Y-73624889D01*
X142696653Y-73695870D01*
X142659537Y-73756392D01*
X142619264Y-73780910D01*
X142511705Y-73821232D01*
X142511704Y-73821233D01*
X142503295Y-73824385D01*
X142386739Y-73911739D01*
X142299385Y-74028295D01*
X142248255Y-74164684D01*
X142241500Y-74226866D01*
X126723781Y-74226866D01*
X126737623Y-74213684D01*
X126800747Y-74181191D01*
X126808069Y-74180007D01*
X126832718Y-74176762D01*
X126832730Y-74176761D01*
X126832733Y-74176761D01*
X126832742Y-74176760D01*
X126924463Y-74164684D01*
X126944561Y-74162038D01*
X127083707Y-74104402D01*
X127131937Y-74067394D01*
X127173193Y-74035737D01*
X127173194Y-74035736D01*
X127203194Y-74012716D01*
X127221188Y-73989266D01*
X127232055Y-73976875D01*
X128364495Y-72844435D01*
X128426807Y-72810409D01*
X128442168Y-72808049D01*
X128563600Y-72796998D01*
X128570302Y-72794820D01*
X128570304Y-72794820D01*
X128729409Y-72743124D01*
X128729412Y-72743123D01*
X128736108Y-72740947D01*
X128891912Y-72648069D01*
X129023266Y-72522982D01*
X129123643Y-72371902D01*
X129188055Y-72202338D01*
X129213299Y-72022717D01*
X129213616Y-72000000D01*
X129193397Y-71819745D01*
X129191080Y-71813091D01*
X129136064Y-71655106D01*
X129136062Y-71655103D01*
X129133745Y-71648448D01*
X129037626Y-71494624D01*
X128996512Y-71453222D01*
X128914778Y-71370915D01*
X128914774Y-71370912D01*
X128909815Y-71365918D01*
X128898697Y-71358862D01*
X128817361Y-71307245D01*
X128756666Y-71268727D01*
X128722081Y-71256412D01*
X128592425Y-71210243D01*
X128592420Y-71210242D01*
X128585790Y-71207881D01*
X128578802Y-71207048D01*
X128578799Y-71207047D01*
X128455698Y-71192368D01*
X128405680Y-71186404D01*
X128398677Y-71187140D01*
X128398676Y-71187140D01*
X128232288Y-71204628D01*
X128232286Y-71204629D01*
X128225288Y-71205364D01*
X128053579Y-71263818D01*
X128047575Y-71267512D01*
X127905095Y-71355166D01*
X127905092Y-71355168D01*
X127899088Y-71358862D01*
X127894053Y-71363793D01*
X127894050Y-71363795D01*
X127787931Y-71467715D01*
X127769493Y-71485771D01*
X127671235Y-71638238D01*
X127668826Y-71644858D01*
X127668824Y-71644861D01*
X127612134Y-71800615D01*
X127609197Y-71808685D01*
X127608314Y-71815675D01*
X127589561Y-71964117D01*
X127561179Y-72029194D01*
X127553650Y-72037420D01*
X126728275Y-72862795D01*
X126665963Y-72896821D01*
X126595148Y-72891756D01*
X126571673Y-72880090D01*
X126561270Y-72873488D01*
X126531240Y-72862795D01*
X126397029Y-72815004D01*
X126397024Y-72815003D01*
X126390394Y-72812642D01*
X126383406Y-72811809D01*
X126383403Y-72811808D01*
X126240935Y-72794820D01*
X126210284Y-72791165D01*
X126203281Y-72791901D01*
X126203280Y-72791901D01*
X126036892Y-72809389D01*
X126036890Y-72809390D01*
X126029892Y-72810125D01*
X125858183Y-72868579D01*
X125820510Y-72891756D01*
X125709699Y-72959927D01*
X125709696Y-72959929D01*
X125703692Y-72963623D01*
X125698657Y-72968554D01*
X125698654Y-72968556D01*
X125579129Y-73085604D01*
X125574097Y-73090532D01*
X125475839Y-73242999D01*
X125473430Y-73249619D01*
X125473428Y-73249622D01*
X125443341Y-73332285D01*
X125413801Y-73413446D01*
X125391067Y-73593401D01*
X114258500Y-73593401D01*
X114258500Y-73401866D01*
X114251745Y-73339684D01*
X114200615Y-73203295D01*
X114113261Y-73086739D01*
X113996705Y-72999385D01*
X113860316Y-72948255D01*
X113798134Y-72941500D01*
X112001866Y-72941500D01*
X111939684Y-72948255D01*
X111803295Y-72999385D01*
X111686739Y-73086739D01*
X111599385Y-73203295D01*
X111548255Y-73339684D01*
X111541500Y-73401866D01*
X110658500Y-73401866D01*
X110651745Y-73339684D01*
X110600615Y-73203295D01*
X110513261Y-73086739D01*
X110396705Y-72999385D01*
X110260316Y-72948255D01*
X110198134Y-72941500D01*
X108401866Y-72941500D01*
X108339684Y-72948255D01*
X108203295Y-72999385D01*
X108086739Y-73086739D01*
X107999385Y-73203295D01*
X107948255Y-73339684D01*
X107941500Y-73401866D01*
X104286609Y-73401866D01*
X105985980Y-72011471D01*
X106000000Y-72000000D01*
X106000000Y-69601866D01*
X107941500Y-69601866D01*
X107941500Y-71398134D01*
X107948255Y-71460316D01*
X107999385Y-71596705D01*
X108086739Y-71713261D01*
X108203295Y-71800615D01*
X108339684Y-71851745D01*
X108401866Y-71858500D01*
X110198134Y-71858500D01*
X110260316Y-71851745D01*
X110396705Y-71800615D01*
X110513261Y-71713261D01*
X110600615Y-71596705D01*
X110651745Y-71460316D01*
X110658500Y-71398134D01*
X110658500Y-69601866D01*
X111541500Y-69601866D01*
X111541500Y-71398134D01*
X111548255Y-71460316D01*
X111599385Y-71596705D01*
X111686739Y-71713261D01*
X111803295Y-71800615D01*
X111939684Y-71851745D01*
X112001866Y-71858500D01*
X113798134Y-71858500D01*
X113860316Y-71851745D01*
X113996705Y-71800615D01*
X114113261Y-71713261D01*
X114200615Y-71596705D01*
X114251745Y-71460316D01*
X114258500Y-71398134D01*
X114258500Y-70011695D01*
X142237251Y-70011695D01*
X142237548Y-70016848D01*
X142237548Y-70016851D01*
X142243011Y-70111590D01*
X142250110Y-70234715D01*
X142251247Y-70239761D01*
X142251248Y-70239767D01*
X142271119Y-70327939D01*
X142299222Y-70452639D01*
X142383266Y-70659616D01*
X142385965Y-70664020D01*
X142491934Y-70836946D01*
X142499987Y-70850088D01*
X142646250Y-71018938D01*
X142818126Y-71161632D01*
X142861778Y-71187140D01*
X142891955Y-71204774D01*
X142940679Y-71256412D01*
X142953750Y-71326195D01*
X142927019Y-71391967D01*
X142886562Y-71425327D01*
X142878457Y-71429546D01*
X142869738Y-71435036D01*
X142699433Y-71562905D01*
X142691726Y-71569748D01*
X142544590Y-71723717D01*
X142538104Y-71731727D01*
X142418098Y-71907649D01*
X142413000Y-71916623D01*
X142323338Y-72109783D01*
X142319775Y-72119470D01*
X142264389Y-72319183D01*
X142265912Y-72327607D01*
X142278292Y-72331000D01*
X144918344Y-72331000D01*
X144931875Y-72327027D01*
X144933180Y-72317947D01*
X144901682Y-72192548D01*
X146042001Y-72192548D01*
X146042001Y-72819669D01*
X146042371Y-72826490D01*
X146047895Y-72877352D01*
X146051521Y-72892604D01*
X146096676Y-73013054D01*
X146105214Y-73028649D01*
X146181715Y-73130724D01*
X146194276Y-73143285D01*
X146296351Y-73219786D01*
X146311946Y-73228324D01*
X146432394Y-73273478D01*
X146447649Y-73277105D01*
X146498514Y-73282631D01*
X146505328Y-73283000D01*
X147127885Y-73283000D01*
X147143124Y-73278525D01*
X147144329Y-73277135D01*
X147146000Y-73269452D01*
X147146000Y-72197115D01*
X147144659Y-72192548D01*
X147654000Y-72192548D01*
X147654000Y-73264884D01*
X147658475Y-73280123D01*
X147659865Y-73281328D01*
X147667548Y-73282999D01*
X148294669Y-73282999D01*
X148301490Y-73282629D01*
X148352352Y-73277105D01*
X148367604Y-73273479D01*
X148488054Y-73228324D01*
X148503649Y-73219786D01*
X148605724Y-73143285D01*
X148618285Y-73130724D01*
X148694786Y-73028649D01*
X148703324Y-73013054D01*
X148748478Y-72892606D01*
X148752105Y-72877351D01*
X148757631Y-72826486D01*
X148758000Y-72819672D01*
X148758000Y-72197115D01*
X148753525Y-72181876D01*
X148752135Y-72180671D01*
X148744452Y-72179000D01*
X147672115Y-72179000D01*
X147656876Y-72183475D01*
X147655671Y-72184865D01*
X147654000Y-72192548D01*
X147144659Y-72192548D01*
X147141525Y-72181876D01*
X147140135Y-72180671D01*
X147132452Y-72179000D01*
X146060116Y-72179000D01*
X146044877Y-72183475D01*
X146043672Y-72184865D01*
X146042001Y-72192548D01*
X144901682Y-72192548D01*
X144891214Y-72150875D01*
X144887894Y-72141124D01*
X144802972Y-71945814D01*
X144798105Y-71936739D01*
X144682426Y-71757926D01*
X144676136Y-71749757D01*
X144532806Y-71592240D01*
X144525273Y-71585215D01*
X144358139Y-71453222D01*
X144349556Y-71447520D01*
X144312602Y-71427120D01*
X144262631Y-71376687D01*
X144247859Y-71307245D01*
X144272975Y-71240839D01*
X144300327Y-71214232D01*
X144338309Y-71187140D01*
X144479860Y-71086173D01*
X144535898Y-71030331D01*
X144535901Y-71030328D01*
X146042000Y-71030328D01*
X146042000Y-71652885D01*
X146046475Y-71668124D01*
X146047865Y-71669329D01*
X146055548Y-71671000D01*
X147127885Y-71671000D01*
X147143124Y-71666525D01*
X147144329Y-71665135D01*
X147146000Y-71657452D01*
X147146000Y-69657115D01*
X147144659Y-69652548D01*
X147654000Y-69652548D01*
X147654000Y-71652885D01*
X147658475Y-71668124D01*
X147659865Y-71669329D01*
X147667548Y-71671000D01*
X148739884Y-71671000D01*
X148755123Y-71666525D01*
X148756328Y-71665135D01*
X148757999Y-71657452D01*
X148757999Y-71030331D01*
X148757629Y-71023510D01*
X148752105Y-70972648D01*
X148748479Y-70957396D01*
X148703324Y-70836946D01*
X148694786Y-70821351D01*
X148618285Y-70719276D01*
X148605724Y-70706715D01*
X148503649Y-70630214D01*
X148488054Y-70621676D01*
X148377297Y-70580155D01*
X148320533Y-70537513D01*
X148295833Y-70470952D01*
X148311040Y-70401603D01*
X148332587Y-70372922D01*
X148434057Y-70271805D01*
X148440730Y-70263965D01*
X148565003Y-70091020D01*
X148570313Y-70082183D01*
X148664670Y-69891267D01*
X148668469Y-69881672D01*
X148730377Y-69677910D01*
X148732555Y-69667837D01*
X148733986Y-69656962D01*
X148731775Y-69642778D01*
X148718617Y-69639000D01*
X147672115Y-69639000D01*
X147656876Y-69643475D01*
X147655671Y-69644865D01*
X147654000Y-69652548D01*
X147144659Y-69652548D01*
X147141525Y-69641876D01*
X147140135Y-69640671D01*
X147132452Y-69639000D01*
X146083225Y-69639000D01*
X146069694Y-69642973D01*
X146068257Y-69652966D01*
X146098565Y-69787446D01*
X146101645Y-69797275D01*
X146181770Y-69994603D01*
X146186413Y-70003794D01*
X146297694Y-70185388D01*
X146303777Y-70193699D01*
X146443213Y-70354667D01*
X146450578Y-70361881D01*
X146455966Y-70366354D01*
X146495599Y-70425258D01*
X146497095Y-70496239D01*
X146459978Y-70556761D01*
X146419707Y-70581278D01*
X146311948Y-70621675D01*
X146296351Y-70630214D01*
X146194276Y-70706715D01*
X146181715Y-70719276D01*
X146105214Y-70821351D01*
X146096676Y-70836946D01*
X146051522Y-70957394D01*
X146047895Y-70972649D01*
X146042369Y-71023514D01*
X146042000Y-71030328D01*
X144535901Y-71030328D01*
X144634435Y-70932137D01*
X144638096Y-70928489D01*
X144697594Y-70845689D01*
X144765435Y-70751277D01*
X144768453Y-70747077D01*
X144850396Y-70581278D01*
X144865136Y-70551453D01*
X144865137Y-70551451D01*
X144867430Y-70546811D01*
X144932370Y-70333069D01*
X144961529Y-70111590D01*
X144963156Y-70045000D01*
X144944852Y-69822361D01*
X144890431Y-69605702D01*
X144801354Y-69400840D01*
X144724058Y-69281358D01*
X144682822Y-69217617D01*
X144682820Y-69217614D01*
X144680014Y-69213277D01*
X144529670Y-69048051D01*
X144525619Y-69044852D01*
X144525615Y-69044848D01*
X144358414Y-68912800D01*
X144358410Y-68912798D01*
X144354359Y-68909598D01*
X144158789Y-68801638D01*
X144153920Y-68799914D01*
X144153916Y-68799912D01*
X143953087Y-68728795D01*
X143953083Y-68728794D01*
X143948212Y-68727069D01*
X143943119Y-68726162D01*
X143943116Y-68726161D01*
X143733373Y-68688800D01*
X143733367Y-68688799D01*
X143728284Y-68687894D01*
X143654452Y-68686992D01*
X143510081Y-68685228D01*
X143510079Y-68685228D01*
X143504911Y-68685165D01*
X143284091Y-68718955D01*
X143071756Y-68788357D01*
X142873607Y-68891507D01*
X142869474Y-68894610D01*
X142869471Y-68894612D01*
X142758711Y-68977773D01*
X142694965Y-69025635D01*
X142691393Y-69029373D01*
X142552934Y-69174262D01*
X142540629Y-69187138D01*
X142537715Y-69191410D01*
X142537714Y-69191411D01*
X142527248Y-69206754D01*
X142414743Y-69371680D01*
X142320688Y-69574305D01*
X142260989Y-69789570D01*
X142237251Y-70011695D01*
X114258500Y-70011695D01*
X114258500Y-69601866D01*
X114251745Y-69539684D01*
X114200615Y-69403295D01*
X114113261Y-69286739D01*
X113996705Y-69199385D01*
X113860316Y-69148255D01*
X113798134Y-69141500D01*
X112001866Y-69141500D01*
X111939684Y-69148255D01*
X111803295Y-69199385D01*
X111686739Y-69286739D01*
X111599385Y-69403295D01*
X111548255Y-69539684D01*
X111541500Y-69601866D01*
X110658500Y-69601866D01*
X110651745Y-69539684D01*
X110600615Y-69403295D01*
X110513261Y-69286739D01*
X110396705Y-69199385D01*
X110260316Y-69148255D01*
X110198134Y-69141500D01*
X108401866Y-69141500D01*
X108339684Y-69148255D01*
X108203295Y-69199385D01*
X108086739Y-69286739D01*
X107999385Y-69403295D01*
X107948255Y-69539684D01*
X107941500Y-69601866D01*
X106000000Y-69601866D01*
X106000000Y-65801866D01*
X107941500Y-65801866D01*
X107941500Y-67598134D01*
X107948255Y-67660316D01*
X107999385Y-67796705D01*
X108086739Y-67913261D01*
X108203295Y-68000615D01*
X108339684Y-68051745D01*
X108401866Y-68058500D01*
X110198134Y-68058500D01*
X110260316Y-68051745D01*
X110396705Y-68000615D01*
X110513261Y-67913261D01*
X110600615Y-67796705D01*
X110651745Y-67660316D01*
X110658500Y-67598134D01*
X110658500Y-65801866D01*
X111541500Y-65801866D01*
X111541500Y-67598134D01*
X111548255Y-67660316D01*
X111599385Y-67796705D01*
X111686739Y-67913261D01*
X111803295Y-68000615D01*
X111939684Y-68051745D01*
X112001866Y-68058500D01*
X113798134Y-68058500D01*
X113860316Y-68051745D01*
X113996705Y-68000615D01*
X114113261Y-67913261D01*
X114200615Y-67796705D01*
X114251745Y-67660316D01*
X114258500Y-67598134D01*
X114258500Y-67288640D01*
X125386463Y-67288640D01*
X125404163Y-67469160D01*
X125461418Y-67641273D01*
X125465065Y-67647295D01*
X125465066Y-67647297D01*
X125516447Y-67732137D01*
X125555380Y-67796424D01*
X125581027Y-67822982D01*
X125618932Y-67862234D01*
X125651864Y-67925131D01*
X125645564Y-67995847D01*
X125616453Y-68039784D01*
X125569493Y-68085771D01*
X125471235Y-68238238D01*
X125468826Y-68244858D01*
X125468824Y-68244861D01*
X125411606Y-68402066D01*
X125409197Y-68408685D01*
X125386463Y-68588640D01*
X125404163Y-68769160D01*
X125461418Y-68941273D01*
X125465065Y-68947295D01*
X125465066Y-68947297D01*
X125526085Y-69048051D01*
X125555380Y-69096424D01*
X125560269Y-69101487D01*
X125560270Y-69101488D01*
X125577358Y-69119183D01*
X125681382Y-69226902D01*
X125833159Y-69326222D01*
X125839763Y-69328678D01*
X125839765Y-69328679D01*
X125996558Y-69386990D01*
X125996560Y-69386990D01*
X126003168Y-69389448D01*
X126086995Y-69400633D01*
X126175980Y-69412507D01*
X126175984Y-69412507D01*
X126182961Y-69413438D01*
X126189972Y-69412800D01*
X126189976Y-69412800D01*
X126332459Y-69399832D01*
X126363600Y-69396998D01*
X126370302Y-69394820D01*
X126370304Y-69394820D01*
X126529409Y-69343124D01*
X126529412Y-69343123D01*
X126536108Y-69340947D01*
X126691912Y-69248069D01*
X126735298Y-69206753D01*
X126798421Y-69174262D01*
X126822188Y-69172000D01*
X127174880Y-69172000D01*
X127243001Y-69192002D01*
X127265515Y-69210472D01*
X127270209Y-69215333D01*
X127276489Y-69221836D01*
X127276493Y-69221839D01*
X127281382Y-69226902D01*
X127433159Y-69326222D01*
X127439763Y-69328678D01*
X127439765Y-69328679D01*
X127596558Y-69386990D01*
X127596560Y-69386990D01*
X127603168Y-69389448D01*
X127686995Y-69400633D01*
X127775980Y-69412507D01*
X127775984Y-69412507D01*
X127782961Y-69413438D01*
X127789972Y-69412800D01*
X127789976Y-69412800D01*
X127932459Y-69399832D01*
X127963600Y-69396998D01*
X127970302Y-69394820D01*
X127970304Y-69394820D01*
X128129409Y-69343124D01*
X128129412Y-69343123D01*
X128136108Y-69340947D01*
X128236069Y-69281358D01*
X128285860Y-69251677D01*
X128285862Y-69251676D01*
X128291912Y-69248069D01*
X128423266Y-69122982D01*
X128523643Y-68971902D01*
X128588055Y-68802338D01*
X128590246Y-68786750D01*
X128612748Y-68626639D01*
X128612748Y-68626636D01*
X128613299Y-68622717D01*
X128613616Y-68600000D01*
X128593397Y-68419745D01*
X128591080Y-68413091D01*
X128536064Y-68255106D01*
X128536062Y-68255103D01*
X128533745Y-68248448D01*
X128437626Y-68094624D01*
X128431268Y-68088221D01*
X128430661Y-68087100D01*
X128428285Y-68084102D01*
X128428812Y-68083685D01*
X128397463Y-68025789D01*
X128402777Y-67954991D01*
X128433785Y-67908195D01*
X128518159Y-67827846D01*
X128518162Y-67827843D01*
X128523266Y-67822982D01*
X128623643Y-67671902D01*
X128688055Y-67502338D01*
X128689035Y-67495366D01*
X128712748Y-67326639D01*
X128712748Y-67326636D01*
X128713299Y-67322717D01*
X128713616Y-67300000D01*
X128693397Y-67119745D01*
X128691080Y-67113091D01*
X128636064Y-66955106D01*
X128636062Y-66955103D01*
X128633745Y-66948448D01*
X128610714Y-66911590D01*
X128548293Y-66811695D01*
X146037251Y-66811695D01*
X146037548Y-66816848D01*
X146037548Y-66816851D01*
X146044547Y-66938238D01*
X146050110Y-67034715D01*
X146051247Y-67039761D01*
X146051248Y-67039767D01*
X146070850Y-67126744D01*
X146099222Y-67252639D01*
X146183266Y-67459616D01*
X146234019Y-67542438D01*
X146268150Y-67598134D01*
X146299987Y-67650088D01*
X146446250Y-67818938D01*
X146618126Y-67961632D01*
X146675621Y-67995229D01*
X146691955Y-68004774D01*
X146740679Y-68056412D01*
X146753750Y-68126195D01*
X146727019Y-68191967D01*
X146686562Y-68225327D01*
X146678457Y-68229546D01*
X146669738Y-68235036D01*
X146499433Y-68362905D01*
X146491726Y-68369748D01*
X146344590Y-68523717D01*
X146338104Y-68531727D01*
X146218098Y-68707649D01*
X146213000Y-68716623D01*
X146123338Y-68909783D01*
X146119775Y-68919470D01*
X146064389Y-69119183D01*
X146065912Y-69127607D01*
X146078292Y-69131000D01*
X148718344Y-69131000D01*
X148731875Y-69127027D01*
X148733180Y-69117947D01*
X148691214Y-68950875D01*
X148687894Y-68941124D01*
X148602972Y-68745814D01*
X148598105Y-68736739D01*
X148482426Y-68557926D01*
X148476136Y-68549757D01*
X148332806Y-68392240D01*
X148325273Y-68385215D01*
X148158139Y-68253222D01*
X148149556Y-68247520D01*
X148112602Y-68227120D01*
X148062631Y-68176687D01*
X148047859Y-68107245D01*
X148072975Y-68040839D01*
X148100327Y-68014232D01*
X148168061Y-67965918D01*
X148279860Y-67886173D01*
X148438096Y-67728489D01*
X148497594Y-67645689D01*
X148565435Y-67551277D01*
X148568453Y-67547077D01*
X148587312Y-67508920D01*
X148665136Y-67351453D01*
X148665137Y-67351451D01*
X148667430Y-67346811D01*
X148732370Y-67133069D01*
X148761529Y-66911590D01*
X148763156Y-66845000D01*
X148744852Y-66622361D01*
X148690431Y-66405702D01*
X148601354Y-66200840D01*
X148480014Y-66013277D01*
X148329670Y-65848051D01*
X148325619Y-65844852D01*
X148325615Y-65844848D01*
X148158414Y-65712800D01*
X148158410Y-65712798D01*
X148154359Y-65709598D01*
X147958789Y-65601638D01*
X147953920Y-65599914D01*
X147953916Y-65599912D01*
X147753087Y-65528795D01*
X147753083Y-65528794D01*
X147748212Y-65527069D01*
X147743119Y-65526162D01*
X147743116Y-65526161D01*
X147533373Y-65488800D01*
X147533367Y-65488799D01*
X147528284Y-65487894D01*
X147454290Y-65486990D01*
X147310081Y-65485228D01*
X147310079Y-65485228D01*
X147304911Y-65485165D01*
X147084091Y-65518955D01*
X146871756Y-65588357D01*
X146673607Y-65691507D01*
X146669474Y-65694610D01*
X146669471Y-65694612D01*
X146526622Y-65801866D01*
X146494965Y-65825635D01*
X146340629Y-65987138D01*
X146214743Y-66171680D01*
X146180461Y-66245535D01*
X146151039Y-66308920D01*
X146120688Y-66374305D01*
X146060989Y-66589570D01*
X146037251Y-66811695D01*
X128548293Y-66811695D01*
X128541359Y-66800598D01*
X128537626Y-66794624D01*
X128523941Y-66780843D01*
X128414778Y-66670915D01*
X128414774Y-66670912D01*
X128409815Y-66665918D01*
X128398697Y-66658862D01*
X128289509Y-66589570D01*
X128256666Y-66568727D01*
X128228306Y-66558629D01*
X128170843Y-66516937D01*
X128145042Y-66450794D01*
X128152785Y-66395186D01*
X128185555Y-66308920D01*
X128185556Y-66308918D01*
X128188055Y-66302338D01*
X128196038Y-66245535D01*
X128212748Y-66126639D01*
X128212748Y-66126636D01*
X128213299Y-66122717D01*
X128213616Y-66100000D01*
X128193397Y-65919745D01*
X128176686Y-65871757D01*
X128136064Y-65755106D01*
X128136062Y-65755103D01*
X128133745Y-65748448D01*
X128037626Y-65594624D01*
X128008594Y-65565389D01*
X127974787Y-65502959D01*
X127972000Y-65476605D01*
X127972000Y-65421035D01*
X127992002Y-65352914D01*
X128011108Y-65329789D01*
X128072187Y-65271624D01*
X128123266Y-65222982D01*
X128223643Y-65071902D01*
X128272529Y-64943211D01*
X128285555Y-64908920D01*
X128285556Y-64908918D01*
X128288055Y-64902338D01*
X128289035Y-64895366D01*
X128312748Y-64726639D01*
X128312748Y-64726636D01*
X128313299Y-64722717D01*
X128313616Y-64700000D01*
X128312342Y-64688640D01*
X134586463Y-64688640D01*
X134604163Y-64869160D01*
X134661418Y-65041273D01*
X134665065Y-65047295D01*
X134665066Y-65047297D01*
X134690594Y-65089448D01*
X134755380Y-65196424D01*
X134881382Y-65326902D01*
X135033159Y-65426222D01*
X135039763Y-65428678D01*
X135039765Y-65428679D01*
X135196558Y-65486990D01*
X135196560Y-65486990D01*
X135203168Y-65489448D01*
X135286995Y-65500633D01*
X135375980Y-65512507D01*
X135375984Y-65512507D01*
X135382961Y-65513438D01*
X135389972Y-65512800D01*
X135389976Y-65512800D01*
X135532459Y-65499832D01*
X135563600Y-65496998D01*
X135570302Y-65494820D01*
X135570304Y-65494820D01*
X135663105Y-65464667D01*
X135702041Y-65458500D01*
X138897282Y-65458500D01*
X138941202Y-65466403D01*
X138996558Y-65486990D01*
X138996560Y-65486991D01*
X139003168Y-65489448D01*
X139086995Y-65500633D01*
X139175980Y-65512507D01*
X139175984Y-65512507D01*
X139182961Y-65513438D01*
X139189972Y-65512800D01*
X139189976Y-65512800D01*
X139332459Y-65499832D01*
X139363600Y-65496998D01*
X139370302Y-65494820D01*
X139370304Y-65494820D01*
X139529409Y-65443124D01*
X139529412Y-65443123D01*
X139536108Y-65440947D01*
X139672000Y-65359939D01*
X139685860Y-65351677D01*
X139685862Y-65351676D01*
X139691912Y-65348069D01*
X139823266Y-65222982D01*
X139923643Y-65071902D01*
X139972529Y-64943211D01*
X139985555Y-64908920D01*
X139985556Y-64908918D01*
X139988055Y-64902338D01*
X139989035Y-64895366D01*
X140012748Y-64726639D01*
X140012748Y-64726636D01*
X140013299Y-64722717D01*
X140013616Y-64700000D01*
X139993397Y-64519745D01*
X139991080Y-64513091D01*
X139936064Y-64355106D01*
X139936062Y-64355103D01*
X139933745Y-64348448D01*
X139837626Y-64194624D01*
X139823941Y-64180843D01*
X139714778Y-64070915D01*
X139714774Y-64070912D01*
X139709815Y-64065918D01*
X139698935Y-64059013D01*
X139650538Y-64028300D01*
X139556666Y-63968727D01*
X139482925Y-63942469D01*
X139392425Y-63910243D01*
X139392420Y-63910242D01*
X139385790Y-63907881D01*
X139378802Y-63907048D01*
X139378799Y-63907047D01*
X139255698Y-63892368D01*
X139205680Y-63886404D01*
X139198677Y-63887140D01*
X139198676Y-63887140D01*
X139032288Y-63904628D01*
X139032286Y-63904629D01*
X139025288Y-63905364D01*
X138940585Y-63934199D01*
X138938884Y-63934778D01*
X138898279Y-63941500D01*
X135701966Y-63941500D01*
X135659699Y-63934199D01*
X135592424Y-63910243D01*
X135592422Y-63910242D01*
X135585790Y-63907881D01*
X135578802Y-63907048D01*
X135578799Y-63907047D01*
X135455698Y-63892368D01*
X135405680Y-63886404D01*
X135398677Y-63887140D01*
X135398676Y-63887140D01*
X135232288Y-63904628D01*
X135232286Y-63904629D01*
X135225288Y-63905364D01*
X135053579Y-63963818D01*
X135047575Y-63967512D01*
X134905095Y-64055166D01*
X134905092Y-64055168D01*
X134899088Y-64058862D01*
X134894053Y-64063793D01*
X134894050Y-64063795D01*
X134843711Y-64113091D01*
X134769493Y-64185771D01*
X134671235Y-64338238D01*
X134668826Y-64344858D01*
X134668824Y-64344861D01*
X134626134Y-64462152D01*
X134609197Y-64508685D01*
X134586463Y-64688640D01*
X128312342Y-64688640D01*
X128293397Y-64519745D01*
X128291080Y-64513091D01*
X128236064Y-64355106D01*
X128236062Y-64355103D01*
X128233745Y-64348448D01*
X128137626Y-64194624D01*
X128123941Y-64180843D01*
X128014778Y-64070915D01*
X128014774Y-64070912D01*
X128009815Y-64065918D01*
X127998935Y-64059013D01*
X127950538Y-64028300D01*
X127856666Y-63968727D01*
X127782925Y-63942469D01*
X127692425Y-63910243D01*
X127692420Y-63910242D01*
X127685790Y-63907881D01*
X127678802Y-63907048D01*
X127678799Y-63907047D01*
X127555698Y-63892368D01*
X127505680Y-63886404D01*
X127498677Y-63887140D01*
X127498676Y-63887140D01*
X127332288Y-63904628D01*
X127332286Y-63904629D01*
X127325288Y-63905364D01*
X127153579Y-63963818D01*
X127065946Y-64017731D01*
X126997447Y-64036388D01*
X126932412Y-64016797D01*
X126862620Y-63972505D01*
X126862616Y-63972503D01*
X126856666Y-63968727D01*
X126782925Y-63942469D01*
X126692425Y-63910243D01*
X126692420Y-63910242D01*
X126685790Y-63907881D01*
X126678802Y-63907048D01*
X126678799Y-63907047D01*
X126555698Y-63892368D01*
X126505680Y-63886404D01*
X126498677Y-63887140D01*
X126498676Y-63887140D01*
X126332288Y-63904628D01*
X126332286Y-63904629D01*
X126325288Y-63905364D01*
X126153579Y-63963818D01*
X126147575Y-63967512D01*
X126005095Y-64055166D01*
X126005092Y-64055168D01*
X125999088Y-64058862D01*
X125994053Y-64063793D01*
X125994050Y-64063795D01*
X125943711Y-64113091D01*
X125869493Y-64185771D01*
X125771235Y-64338238D01*
X125768826Y-64344858D01*
X125768824Y-64344861D01*
X125726134Y-64462152D01*
X125709197Y-64508685D01*
X125686463Y-64688640D01*
X125704163Y-64869160D01*
X125761418Y-65041273D01*
X125765065Y-65047295D01*
X125765066Y-65047297D01*
X125790594Y-65089448D01*
X125855380Y-65196424D01*
X125875357Y-65217111D01*
X125892637Y-65235005D01*
X125925569Y-65297902D01*
X125928000Y-65322532D01*
X125928000Y-65452717D01*
X125907998Y-65520838D01*
X125890158Y-65542740D01*
X125877167Y-65555462D01*
X125778909Y-65707929D01*
X125776500Y-65714549D01*
X125776498Y-65714552D01*
X125743475Y-65805283D01*
X125716871Y-65878376D01*
X125694137Y-66058331D01*
X125711837Y-66238851D01*
X125769092Y-66410964D01*
X125772739Y-66416986D01*
X125772740Y-66416988D01*
X125794652Y-66453169D01*
X125812831Y-66521799D01*
X125791020Y-66589362D01*
X125752899Y-66625757D01*
X125699088Y-66658862D01*
X125694053Y-66663793D01*
X125694050Y-66663795D01*
X125574525Y-66780843D01*
X125569493Y-66785771D01*
X125471235Y-66938238D01*
X125468826Y-66944858D01*
X125468824Y-66944861D01*
X125438001Y-67029547D01*
X125409197Y-67108685D01*
X125386463Y-67288640D01*
X114258500Y-67288640D01*
X114258500Y-65801866D01*
X114251745Y-65739684D01*
X114200615Y-65603295D01*
X114113261Y-65486739D01*
X113996705Y-65399385D01*
X113860316Y-65348255D01*
X113798134Y-65341500D01*
X112001866Y-65341500D01*
X111939684Y-65348255D01*
X111803295Y-65399385D01*
X111686739Y-65486739D01*
X111599385Y-65603295D01*
X111548255Y-65739684D01*
X111541500Y-65801866D01*
X110658500Y-65801866D01*
X110651745Y-65739684D01*
X110600615Y-65603295D01*
X110513261Y-65486739D01*
X110396705Y-65399385D01*
X110260316Y-65348255D01*
X110198134Y-65341500D01*
X108401866Y-65341500D01*
X108339684Y-65348255D01*
X108203295Y-65399385D01*
X108086739Y-65486739D01*
X107999385Y-65603295D01*
X107948255Y-65739684D01*
X107941500Y-65801866D01*
X106000000Y-65801866D01*
X106000000Y-59388640D01*
X118086463Y-59388640D01*
X118104163Y-59569160D01*
X118161418Y-59741273D01*
X118165065Y-59747295D01*
X118165066Y-59747297D01*
X118167658Y-59751576D01*
X118255380Y-59896424D01*
X118282363Y-59924366D01*
X118292637Y-59935005D01*
X118325569Y-59997902D01*
X118328000Y-60022532D01*
X118328000Y-62254256D01*
X118326922Y-62270702D01*
X118323065Y-62300000D01*
X118328000Y-62337486D01*
X118328000Y-62337492D01*
X118342723Y-62449322D01*
X118400359Y-62588468D01*
X118492045Y-62707955D01*
X118498595Y-62712981D01*
X118515495Y-62725949D01*
X118527886Y-62736816D01*
X120055295Y-64264225D01*
X120089321Y-64326537D01*
X120091599Y-64341024D01*
X120104163Y-64469160D01*
X120161418Y-64641273D01*
X120165065Y-64647295D01*
X120165066Y-64647297D01*
X120208344Y-64718757D01*
X120255380Y-64796424D01*
X120381382Y-64926902D01*
X120533159Y-65026222D01*
X120539763Y-65028678D01*
X120539765Y-65028679D01*
X120696558Y-65086990D01*
X120696560Y-65086990D01*
X120703168Y-65089448D01*
X120786995Y-65100633D01*
X120875980Y-65112507D01*
X120875984Y-65112507D01*
X120882961Y-65113438D01*
X120889972Y-65112800D01*
X120889976Y-65112800D01*
X121032459Y-65099832D01*
X121063600Y-65096998D01*
X121070302Y-65094820D01*
X121070304Y-65094820D01*
X121229409Y-65043124D01*
X121229412Y-65043123D01*
X121236108Y-65040947D01*
X121391912Y-64948069D01*
X121523266Y-64822982D01*
X121623643Y-64671902D01*
X121682989Y-64515675D01*
X121685555Y-64508920D01*
X121685556Y-64508918D01*
X121688055Y-64502338D01*
X121689035Y-64495366D01*
X121712748Y-64326639D01*
X121712748Y-64326636D01*
X121713299Y-64322717D01*
X121713616Y-64300000D01*
X121693397Y-64119745D01*
X121676393Y-64070915D01*
X121636064Y-63955106D01*
X121636062Y-63955103D01*
X121633745Y-63948448D01*
X121630009Y-63942469D01*
X121541359Y-63800598D01*
X121537626Y-63794624D01*
X121532664Y-63789627D01*
X121414778Y-63670915D01*
X121414774Y-63670912D01*
X121409815Y-63665918D01*
X121389720Y-63653165D01*
X121350538Y-63628300D01*
X121256666Y-63568727D01*
X121227463Y-63558328D01*
X121092425Y-63510243D01*
X121092420Y-63510242D01*
X121085790Y-63507881D01*
X121078802Y-63507048D01*
X121078799Y-63507047D01*
X120937256Y-63490169D01*
X120871983Y-63462241D01*
X120863080Y-63454150D01*
X119548930Y-62140000D01*
X142576835Y-62140000D01*
X142595465Y-62376711D01*
X142650895Y-62607594D01*
X142652788Y-62612165D01*
X142652789Y-62612167D01*
X142702001Y-62730975D01*
X142741760Y-62826963D01*
X142744346Y-62831183D01*
X142863241Y-63025202D01*
X142863245Y-63025208D01*
X142865824Y-63029416D01*
X143020031Y-63209969D01*
X143200584Y-63364176D01*
X143204792Y-63366755D01*
X143204798Y-63366759D01*
X143398817Y-63485654D01*
X143403037Y-63488240D01*
X143407607Y-63490133D01*
X143407611Y-63490135D01*
X143591641Y-63566362D01*
X143622406Y-63579105D01*
X143702609Y-63598360D01*
X143848476Y-63633380D01*
X143848482Y-63633381D01*
X143853289Y-63634535D01*
X144090000Y-63653165D01*
X144326711Y-63634535D01*
X144331518Y-63633381D01*
X144331524Y-63633380D01*
X144477391Y-63598360D01*
X144557594Y-63579105D01*
X144588359Y-63566362D01*
X144772389Y-63490135D01*
X144772393Y-63490133D01*
X144776963Y-63488240D01*
X144781183Y-63485654D01*
X144975202Y-63366759D01*
X144975208Y-63366755D01*
X144979416Y-63364176D01*
X145159969Y-63209969D01*
X145314176Y-63029416D01*
X145316755Y-63025208D01*
X145316759Y-63025202D01*
X145435654Y-62831183D01*
X145438240Y-62826963D01*
X145478000Y-62730975D01*
X145527211Y-62612167D01*
X145527212Y-62612165D01*
X145529105Y-62607594D01*
X145584535Y-62376711D01*
X145603165Y-62140000D01*
X145584535Y-61903289D01*
X145583179Y-61897637D01*
X145530260Y-61677218D01*
X145529105Y-61672406D01*
X145524780Y-61661965D01*
X145440135Y-61457611D01*
X145440133Y-61457607D01*
X145438240Y-61453037D01*
X145349925Y-61308920D01*
X145316759Y-61254798D01*
X145316755Y-61254792D01*
X145314176Y-61250584D01*
X145159969Y-61070031D01*
X144979416Y-60915824D01*
X144975208Y-60913245D01*
X144975202Y-60913241D01*
X144781183Y-60794346D01*
X144776963Y-60791760D01*
X144772393Y-60789867D01*
X144772389Y-60789865D01*
X144562167Y-60702789D01*
X144562165Y-60702788D01*
X144557594Y-60700895D01*
X144477391Y-60681640D01*
X144331524Y-60646620D01*
X144331518Y-60646619D01*
X144326711Y-60645465D01*
X144090000Y-60626835D01*
X143853289Y-60645465D01*
X143848482Y-60646619D01*
X143848476Y-60646620D01*
X143702609Y-60681640D01*
X143622406Y-60700895D01*
X143617835Y-60702788D01*
X143617833Y-60702789D01*
X143407611Y-60789865D01*
X143407607Y-60789867D01*
X143403037Y-60791760D01*
X143398817Y-60794346D01*
X143204798Y-60913241D01*
X143204792Y-60913245D01*
X143200584Y-60915824D01*
X143020031Y-61070031D01*
X142865824Y-61250584D01*
X142863245Y-61254792D01*
X142863241Y-61254798D01*
X142830075Y-61308920D01*
X142741760Y-61453037D01*
X142739867Y-61457607D01*
X142739865Y-61457611D01*
X142655220Y-61661965D01*
X142650895Y-61672406D01*
X142649740Y-61677218D01*
X142596822Y-61897637D01*
X142595465Y-61903289D01*
X142576835Y-62140000D01*
X119548930Y-62140000D01*
X119508905Y-62099975D01*
X119474879Y-62037663D01*
X119472000Y-62010880D01*
X119472000Y-61248871D01*
X119492002Y-61180750D01*
X119545658Y-61134257D01*
X119615932Y-61124153D01*
X119680512Y-61153647D01*
X119687095Y-61159776D01*
X120116230Y-61588911D01*
X120128616Y-61603323D01*
X120137149Y-61614918D01*
X120137154Y-61614923D01*
X120141492Y-61620818D01*
X120147070Y-61625557D01*
X120147073Y-61625560D01*
X120181768Y-61655035D01*
X120189284Y-61661965D01*
X120194980Y-61667661D01*
X120197841Y-61669924D01*
X120197846Y-61669929D01*
X120217266Y-61685293D01*
X120220667Y-61688082D01*
X120276285Y-61735333D01*
X120282805Y-61738662D01*
X120287852Y-61742028D01*
X120292976Y-61745193D01*
X120298717Y-61749735D01*
X120305348Y-61752834D01*
X120305351Y-61752836D01*
X120364830Y-61780634D01*
X120368776Y-61782562D01*
X120433808Y-61815769D01*
X120440914Y-61817508D01*
X120446564Y-61819609D01*
X120452321Y-61821524D01*
X120458950Y-61824622D01*
X120530435Y-61839491D01*
X120534701Y-61840457D01*
X120605610Y-61857808D01*
X120611212Y-61858156D01*
X120611215Y-61858156D01*
X120616764Y-61858500D01*
X120616762Y-61858535D01*
X120620734Y-61858775D01*
X120624955Y-61859152D01*
X120632115Y-61860641D01*
X120709542Y-61858546D01*
X120712950Y-61858500D01*
X127797282Y-61858500D01*
X127841202Y-61866403D01*
X127896558Y-61886990D01*
X127896560Y-61886991D01*
X127903168Y-61889448D01*
X127986995Y-61900633D01*
X128075980Y-61912507D01*
X128075984Y-61912507D01*
X128082961Y-61913438D01*
X128089972Y-61912800D01*
X128089976Y-61912800D01*
X128247360Y-61898476D01*
X128263600Y-61896998D01*
X128270302Y-61894820D01*
X128270304Y-61894820D01*
X128429409Y-61843124D01*
X128429412Y-61843123D01*
X128436108Y-61840947D01*
X128537284Y-61780634D01*
X128585860Y-61751677D01*
X128585862Y-61751676D01*
X128591912Y-61748069D01*
X128723266Y-61622982D01*
X128823643Y-61471902D01*
X128888055Y-61302338D01*
X128913299Y-61122717D01*
X128913616Y-61100000D01*
X128893397Y-60919745D01*
X128891080Y-60913091D01*
X128836064Y-60755106D01*
X128836062Y-60755103D01*
X128833745Y-60748448D01*
X128757996Y-60627223D01*
X128741359Y-60600598D01*
X128737626Y-60594624D01*
X128732664Y-60589627D01*
X128614778Y-60470915D01*
X128614774Y-60470912D01*
X128609815Y-60465918D01*
X128456666Y-60368727D01*
X128427463Y-60358328D01*
X128292425Y-60310243D01*
X128292420Y-60310242D01*
X128285790Y-60307881D01*
X128278802Y-60307048D01*
X128278799Y-60307047D01*
X128155698Y-60292368D01*
X128105680Y-60286404D01*
X128098677Y-60287140D01*
X128098676Y-60287140D01*
X127932288Y-60304628D01*
X127932286Y-60304629D01*
X127925288Y-60305364D01*
X127838884Y-60334778D01*
X127798279Y-60341500D01*
X121066371Y-60341500D01*
X120998250Y-60321498D01*
X120977276Y-60304595D01*
X120458908Y-59786227D01*
X120435281Y-59752858D01*
X120433745Y-59748448D01*
X120430014Y-59742477D01*
X120430012Y-59742473D01*
X120341359Y-59600598D01*
X120337626Y-59594624D01*
X120305379Y-59562151D01*
X120214778Y-59470915D01*
X120214774Y-59470912D01*
X120209815Y-59465918D01*
X120056666Y-59368727D01*
X120027463Y-59358328D01*
X119892425Y-59310243D01*
X119892420Y-59310242D01*
X119885790Y-59307881D01*
X119878802Y-59307048D01*
X119878799Y-59307047D01*
X119795263Y-59297086D01*
X119729990Y-59269158D01*
X119691191Y-59213410D01*
X119650184Y-59095654D01*
X119633745Y-59048448D01*
X119537626Y-58894624D01*
X119466676Y-58823177D01*
X119414778Y-58770915D01*
X119414774Y-58770912D01*
X119409815Y-58765918D01*
X119398697Y-58758862D01*
X119350538Y-58728300D01*
X119256666Y-58668727D01*
X119227463Y-58658328D01*
X119092425Y-58610243D01*
X119092420Y-58610242D01*
X119085790Y-58607881D01*
X119078802Y-58607048D01*
X119078799Y-58607047D01*
X118955698Y-58592368D01*
X118905680Y-58586404D01*
X118898677Y-58587140D01*
X118898676Y-58587140D01*
X118732288Y-58604628D01*
X118732286Y-58604629D01*
X118725288Y-58605364D01*
X118553579Y-58663818D01*
X118547575Y-58667512D01*
X118405095Y-58755166D01*
X118405092Y-58755168D01*
X118399088Y-58758862D01*
X118394053Y-58763793D01*
X118394050Y-58763795D01*
X118274525Y-58880843D01*
X118269493Y-58885771D01*
X118171235Y-59038238D01*
X118168826Y-59044858D01*
X118168824Y-59044861D01*
X118116077Y-59189783D01*
X118109197Y-59208685D01*
X118086463Y-59388640D01*
X106000000Y-59388640D01*
X106000000Y-57750000D01*
X128846835Y-57750000D01*
X128865465Y-57986711D01*
X128920895Y-58217594D01*
X128922788Y-58222165D01*
X128922789Y-58222167D01*
X129000648Y-58410135D01*
X129011760Y-58436963D01*
X129014346Y-58441183D01*
X129133241Y-58635202D01*
X129133245Y-58635208D01*
X129135824Y-58639416D01*
X129290031Y-58819969D01*
X129470584Y-58974176D01*
X129474792Y-58976755D01*
X129474798Y-58976759D01*
X129591784Y-59048448D01*
X129673037Y-59098240D01*
X129677607Y-59100133D01*
X129677611Y-59100135D01*
X129887833Y-59187211D01*
X129892406Y-59189105D01*
X129946393Y-59202066D01*
X130118476Y-59243380D01*
X130118482Y-59243381D01*
X130123289Y-59244535D01*
X130360000Y-59263165D01*
X130596711Y-59244535D01*
X130601518Y-59243381D01*
X130601524Y-59243380D01*
X130773607Y-59202066D01*
X130827594Y-59189105D01*
X130832167Y-59187211D01*
X131042389Y-59100135D01*
X131042393Y-59100133D01*
X131046963Y-59098240D01*
X131128216Y-59048448D01*
X131235556Y-58982670D01*
X132032160Y-58982670D01*
X132037887Y-58990320D01*
X132209042Y-59095205D01*
X132217837Y-59099687D01*
X132427988Y-59186734D01*
X132437373Y-59189783D01*
X132658554Y-59242885D01*
X132668301Y-59244428D01*
X132895070Y-59262275D01*
X132904930Y-59262275D01*
X133131699Y-59244428D01*
X133141446Y-59242885D01*
X133362627Y-59189783D01*
X133372012Y-59186734D01*
X133582163Y-59099687D01*
X133590958Y-59095205D01*
X133758445Y-58992568D01*
X133767907Y-58982110D01*
X133764124Y-58973334D01*
X132912812Y-58122022D01*
X132898868Y-58114408D01*
X132897035Y-58114539D01*
X132890420Y-58118790D01*
X132038920Y-58970290D01*
X132032160Y-58982670D01*
X131235556Y-58982670D01*
X131245202Y-58976759D01*
X131245208Y-58976755D01*
X131249416Y-58974176D01*
X131429969Y-58819969D01*
X131433177Y-58816213D01*
X131433182Y-58816208D01*
X131563706Y-58663384D01*
X131623156Y-58624574D01*
X131657558Y-58622360D01*
X131676667Y-58614123D01*
X132527978Y-57762812D01*
X132534356Y-57751132D01*
X133264408Y-57751132D01*
X133264539Y-57752965D01*
X133268790Y-57759580D01*
X134120290Y-58611080D01*
X134137102Y-58620260D01*
X134200350Y-58634020D01*
X134235775Y-58662776D01*
X134320643Y-58762143D01*
X134370031Y-58819969D01*
X134550584Y-58974176D01*
X134554792Y-58976755D01*
X134554798Y-58976759D01*
X134671784Y-59048448D01*
X134753037Y-59098240D01*
X134757607Y-59100133D01*
X134757611Y-59100135D01*
X134967833Y-59187211D01*
X134972406Y-59189105D01*
X135026393Y-59202066D01*
X135198476Y-59243380D01*
X135198482Y-59243381D01*
X135203289Y-59244535D01*
X135440000Y-59263165D01*
X135676711Y-59244535D01*
X135681518Y-59243381D01*
X135681524Y-59243380D01*
X135853607Y-59202066D01*
X135907594Y-59189105D01*
X135912167Y-59187211D01*
X136122389Y-59100135D01*
X136122393Y-59100133D01*
X136126963Y-59098240D01*
X136208216Y-59048448D01*
X136325202Y-58976759D01*
X136325208Y-58976755D01*
X136329416Y-58974176D01*
X136509969Y-58819969D01*
X136664176Y-58639416D01*
X136666755Y-58635208D01*
X136666759Y-58635202D01*
X136785654Y-58441183D01*
X136788240Y-58436963D01*
X136799353Y-58410135D01*
X136877211Y-58222167D01*
X136877212Y-58222165D01*
X136879105Y-58217594D01*
X136934535Y-57986711D01*
X136953165Y-57750000D01*
X136934535Y-57513289D01*
X136879105Y-57282406D01*
X136788240Y-57063037D01*
X136786379Y-57060000D01*
X142586835Y-57060000D01*
X142605465Y-57296711D01*
X142660895Y-57527594D01*
X142662788Y-57532165D01*
X142662789Y-57532167D01*
X142749050Y-57740420D01*
X142751760Y-57746963D01*
X142754346Y-57751183D01*
X142873241Y-57945202D01*
X142873245Y-57945208D01*
X142875824Y-57949416D01*
X142903463Y-57981777D01*
X143016853Y-58114539D01*
X143030031Y-58129969D01*
X143210584Y-58284176D01*
X143214792Y-58286755D01*
X143214798Y-58286759D01*
X143408817Y-58405654D01*
X143413037Y-58408240D01*
X143417607Y-58410133D01*
X143417611Y-58410135D01*
X143627833Y-58497211D01*
X143632406Y-58499105D01*
X143712609Y-58518360D01*
X143858476Y-58553380D01*
X143858482Y-58553381D01*
X143863289Y-58554535D01*
X144100000Y-58573165D01*
X144336711Y-58554535D01*
X144341518Y-58553381D01*
X144341524Y-58553380D01*
X144487391Y-58518360D01*
X144567594Y-58499105D01*
X144572167Y-58497211D01*
X144782389Y-58410135D01*
X144782393Y-58410133D01*
X144786963Y-58408240D01*
X144791183Y-58405654D01*
X144985202Y-58286759D01*
X144985208Y-58286755D01*
X144989416Y-58284176D01*
X145169969Y-58129969D01*
X145183148Y-58114539D01*
X145296537Y-57981777D01*
X145324176Y-57949416D01*
X145326755Y-57945208D01*
X145326759Y-57945202D01*
X145445654Y-57751183D01*
X145448240Y-57746963D01*
X145450951Y-57740420D01*
X145537211Y-57532167D01*
X145537212Y-57532165D01*
X145539105Y-57527594D01*
X145594535Y-57296711D01*
X145613165Y-57060000D01*
X145594535Y-56823289D01*
X145539105Y-56592406D01*
X145461209Y-56404346D01*
X145450135Y-56377611D01*
X145450133Y-56377607D01*
X145448240Y-56373037D01*
X145409744Y-56310217D01*
X145326759Y-56174798D01*
X145326755Y-56174792D01*
X145324176Y-56170584D01*
X145169969Y-55990031D01*
X144989416Y-55835824D01*
X144985208Y-55833245D01*
X144985202Y-55833241D01*
X144791183Y-55714346D01*
X144786963Y-55711760D01*
X144782393Y-55709867D01*
X144782389Y-55709865D01*
X144572167Y-55622789D01*
X144572165Y-55622788D01*
X144567594Y-55620895D01*
X144487391Y-55601640D01*
X144341524Y-55566620D01*
X144341518Y-55566619D01*
X144336711Y-55565465D01*
X144100000Y-55546835D01*
X143863289Y-55565465D01*
X143858482Y-55566619D01*
X143858476Y-55566620D01*
X143712609Y-55601640D01*
X143632406Y-55620895D01*
X143627835Y-55622788D01*
X143627833Y-55622789D01*
X143417611Y-55709865D01*
X143417607Y-55709867D01*
X143413037Y-55711760D01*
X143408817Y-55714346D01*
X143214798Y-55833241D01*
X143214792Y-55833245D01*
X143210584Y-55835824D01*
X143030031Y-55990031D01*
X142875824Y-56170584D01*
X142873245Y-56174792D01*
X142873241Y-56174798D01*
X142790256Y-56310217D01*
X142751760Y-56373037D01*
X142749867Y-56377607D01*
X142749865Y-56377611D01*
X142738791Y-56404346D01*
X142660895Y-56592406D01*
X142605465Y-56823289D01*
X142586835Y-57060000D01*
X136786379Y-57060000D01*
X136783358Y-57055070D01*
X136666759Y-56864798D01*
X136666755Y-56864792D01*
X136664176Y-56860584D01*
X136509969Y-56680031D01*
X136329416Y-56525824D01*
X136325208Y-56523245D01*
X136325202Y-56523241D01*
X136131183Y-56404346D01*
X136126963Y-56401760D01*
X136122393Y-56399867D01*
X136122389Y-56399865D01*
X135912167Y-56312789D01*
X135912165Y-56312788D01*
X135907594Y-56310895D01*
X135827391Y-56291640D01*
X135681524Y-56256620D01*
X135681518Y-56256619D01*
X135676711Y-56255465D01*
X135440000Y-56236835D01*
X135203289Y-56255465D01*
X135198482Y-56256619D01*
X135198476Y-56256620D01*
X135052609Y-56291640D01*
X134972406Y-56310895D01*
X134967835Y-56312788D01*
X134967833Y-56312789D01*
X134757611Y-56399865D01*
X134757607Y-56399867D01*
X134753037Y-56401760D01*
X134748817Y-56404346D01*
X134554798Y-56523241D01*
X134554792Y-56523245D01*
X134550584Y-56525824D01*
X134370031Y-56680031D01*
X134366823Y-56683787D01*
X134366818Y-56683792D01*
X134236294Y-56836616D01*
X134176844Y-56875426D01*
X134142442Y-56877640D01*
X134123333Y-56885877D01*
X133272022Y-57737188D01*
X133264408Y-57751132D01*
X132534356Y-57751132D01*
X132535592Y-57748868D01*
X132535461Y-57747035D01*
X132531210Y-57740420D01*
X131679710Y-56888920D01*
X131662898Y-56879740D01*
X131599650Y-56865980D01*
X131564225Y-56837224D01*
X131433177Y-56683787D01*
X131429969Y-56680031D01*
X131249416Y-56525824D01*
X131245208Y-56523245D01*
X131245202Y-56523241D01*
X131236470Y-56517890D01*
X132032093Y-56517890D01*
X132035876Y-56526666D01*
X132887188Y-57377978D01*
X132901132Y-57385592D01*
X132902965Y-57385461D01*
X132909580Y-57381210D01*
X133761080Y-56529710D01*
X133767840Y-56517330D01*
X133762113Y-56509680D01*
X133590958Y-56404795D01*
X133582163Y-56400313D01*
X133372012Y-56313266D01*
X133362627Y-56310217D01*
X133141446Y-56257115D01*
X133131699Y-56255572D01*
X132904930Y-56237725D01*
X132895070Y-56237725D01*
X132668301Y-56255572D01*
X132658554Y-56257115D01*
X132437373Y-56310217D01*
X132427988Y-56313266D01*
X132217837Y-56400313D01*
X132209042Y-56404795D01*
X132041555Y-56507432D01*
X132032093Y-56517890D01*
X131236470Y-56517890D01*
X131051183Y-56404346D01*
X131046963Y-56401760D01*
X131042393Y-56399867D01*
X131042389Y-56399865D01*
X130832167Y-56312789D01*
X130832165Y-56312788D01*
X130827594Y-56310895D01*
X130747391Y-56291640D01*
X130601524Y-56256620D01*
X130601518Y-56256619D01*
X130596711Y-56255465D01*
X130360000Y-56236835D01*
X130123289Y-56255465D01*
X130118482Y-56256619D01*
X130118476Y-56256620D01*
X129972609Y-56291640D01*
X129892406Y-56310895D01*
X129887835Y-56312788D01*
X129887833Y-56312789D01*
X129677611Y-56399865D01*
X129677607Y-56399867D01*
X129673037Y-56401760D01*
X129668817Y-56404346D01*
X129474798Y-56523241D01*
X129474792Y-56523245D01*
X129470584Y-56525824D01*
X129290031Y-56680031D01*
X129135824Y-56860584D01*
X129133245Y-56864792D01*
X129133241Y-56864798D01*
X129016642Y-57055070D01*
X129011760Y-57063037D01*
X128920895Y-57282406D01*
X128865465Y-57513289D01*
X128846835Y-57750000D01*
X106000000Y-57750000D01*
X106000000Y-53423359D01*
X139341386Y-53423359D01*
X139350099Y-53434879D01*
X139438586Y-53499760D01*
X139446505Y-53504708D01*
X139662877Y-53618547D01*
X139671451Y-53622275D01*
X139902282Y-53702885D01*
X139911291Y-53705299D01*
X140151518Y-53750908D01*
X140160775Y-53751962D01*
X140405107Y-53761563D01*
X140414420Y-53761237D01*
X140657478Y-53734618D01*
X140666655Y-53732917D01*
X140903107Y-53670665D01*
X140911926Y-53667628D01*
X141136584Y-53571107D01*
X141144856Y-53566800D01*
X141352777Y-53438135D01*
X141354620Y-53436796D01*
X141362038Y-53425541D01*
X141355974Y-53415184D01*
X140362812Y-52422022D01*
X140348868Y-52414408D01*
X140347035Y-52414539D01*
X140340420Y-52418790D01*
X139348044Y-53411166D01*
X139341386Y-53423359D01*
X106000000Y-53423359D01*
X106000000Y-51288640D01*
X122686463Y-51288640D01*
X122704163Y-51469160D01*
X122761418Y-51641273D01*
X122765065Y-51647295D01*
X122765066Y-51647297D01*
X122831645Y-51757232D01*
X122855380Y-51796424D01*
X122981382Y-51926902D01*
X123133159Y-52026222D01*
X123139763Y-52028678D01*
X123139765Y-52028679D01*
X123296558Y-52086990D01*
X123296560Y-52086990D01*
X123303168Y-52089448D01*
X123386995Y-52100633D01*
X123475980Y-52112507D01*
X123475984Y-52112507D01*
X123482961Y-52113438D01*
X123489972Y-52112800D01*
X123489976Y-52112800D01*
X123632459Y-52099832D01*
X123663600Y-52096998D01*
X123670302Y-52094820D01*
X123670304Y-52094820D01*
X123829409Y-52043124D01*
X123829412Y-52043123D01*
X123836108Y-52040947D01*
X123991912Y-51948069D01*
X124035298Y-51906753D01*
X124098421Y-51874262D01*
X124122188Y-51872000D01*
X127674880Y-51872000D01*
X127743001Y-51892002D01*
X127765515Y-51910472D01*
X127770209Y-51915333D01*
X127776489Y-51921836D01*
X127776493Y-51921839D01*
X127781382Y-51926902D01*
X127933159Y-52026222D01*
X127939763Y-52028678D01*
X127939765Y-52028679D01*
X128096558Y-52086990D01*
X128096560Y-52086990D01*
X128103168Y-52089448D01*
X128186995Y-52100633D01*
X128275980Y-52112507D01*
X128275984Y-52112507D01*
X128282961Y-52113438D01*
X128289972Y-52112800D01*
X128289976Y-52112800D01*
X128432459Y-52099832D01*
X128463600Y-52096998D01*
X128470302Y-52094820D01*
X128470304Y-52094820D01*
X128629409Y-52043124D01*
X128629412Y-52043123D01*
X128636108Y-52040947D01*
X128752262Y-51971705D01*
X128785860Y-51951677D01*
X128785862Y-51951676D01*
X128791912Y-51948069D01*
X128923266Y-51822982D01*
X129023643Y-51671902D01*
X129081443Y-51519745D01*
X129085555Y-51508920D01*
X129085556Y-51508918D01*
X129088055Y-51502338D01*
X129091315Y-51479141D01*
X129112748Y-51326639D01*
X129112748Y-51326636D01*
X129113299Y-51322717D01*
X129113452Y-51311738D01*
X129113561Y-51303962D01*
X129113561Y-51303957D01*
X129113616Y-51300000D01*
X129093397Y-51119745D01*
X129091080Y-51113091D01*
X129036064Y-50955106D01*
X129036062Y-50955103D01*
X129033745Y-50948448D01*
X128937626Y-50794624D01*
X128899266Y-50755995D01*
X128814778Y-50670915D01*
X128814774Y-50670912D01*
X128809815Y-50665918D01*
X128798697Y-50658862D01*
X128750538Y-50628300D01*
X128656666Y-50568727D01*
X128604086Y-50550004D01*
X128492425Y-50510243D01*
X128492420Y-50510242D01*
X128485790Y-50507881D01*
X128478802Y-50507048D01*
X128478799Y-50507047D01*
X128355698Y-50492368D01*
X128305680Y-50486404D01*
X128298677Y-50487140D01*
X128298676Y-50487140D01*
X128132288Y-50504628D01*
X128132286Y-50504629D01*
X128125288Y-50505364D01*
X127953579Y-50563818D01*
X127940044Y-50572145D01*
X127805095Y-50655166D01*
X127805092Y-50655168D01*
X127799088Y-50658862D01*
X127794053Y-50663793D01*
X127794050Y-50663795D01*
X127765224Y-50692024D01*
X127702559Y-50725394D01*
X127677067Y-50728000D01*
X124123914Y-50728000D01*
X124055793Y-50707998D01*
X124034508Y-50690784D01*
X124014778Y-50670915D01*
X124014774Y-50670912D01*
X124009815Y-50665918D01*
X123998697Y-50658862D01*
X123950538Y-50628300D01*
X123856666Y-50568727D01*
X123804086Y-50550004D01*
X123692425Y-50510243D01*
X123692420Y-50510242D01*
X123685790Y-50507881D01*
X123678802Y-50507048D01*
X123678799Y-50507047D01*
X123555698Y-50492368D01*
X123505680Y-50486404D01*
X123498677Y-50487140D01*
X123498676Y-50487140D01*
X123332288Y-50504628D01*
X123332286Y-50504629D01*
X123325288Y-50505364D01*
X123153579Y-50563818D01*
X123140044Y-50572145D01*
X123005095Y-50655166D01*
X123005092Y-50655168D01*
X122999088Y-50658862D01*
X122994053Y-50663793D01*
X122994050Y-50663795D01*
X122905410Y-50750598D01*
X122869493Y-50785771D01*
X122771235Y-50938238D01*
X122768826Y-50944858D01*
X122768824Y-50944861D01*
X122711606Y-51102066D01*
X122709197Y-51108685D01*
X122686463Y-51288640D01*
X106000000Y-51288640D01*
X106000000Y-44776990D01*
X106020002Y-44708869D01*
X106073658Y-44662376D01*
X106139558Y-44652901D01*
X106139684Y-44651745D01*
X106165082Y-44654504D01*
X106201866Y-44658500D01*
X107888989Y-44658500D01*
X107957110Y-44678502D01*
X108003603Y-44732158D01*
X108014989Y-44784500D01*
X108014989Y-47273060D01*
X108011493Y-47302377D01*
X108009197Y-47308685D01*
X107986463Y-47488640D01*
X108004163Y-47669160D01*
X108061418Y-47841273D01*
X108065065Y-47847295D01*
X108065066Y-47847297D01*
X108075978Y-47865314D01*
X108155380Y-47996424D01*
X108281382Y-48126902D01*
X108433159Y-48226222D01*
X108439763Y-48228678D01*
X108439765Y-48228679D01*
X108596558Y-48286990D01*
X108596560Y-48286990D01*
X108603168Y-48289448D01*
X108686995Y-48300633D01*
X108775980Y-48312507D01*
X108775984Y-48312507D01*
X108782961Y-48313438D01*
X108789972Y-48312800D01*
X108789976Y-48312800D01*
X108932459Y-48299832D01*
X108963600Y-48296998D01*
X108970302Y-48294820D01*
X108970304Y-48294820D01*
X109129409Y-48243124D01*
X109129412Y-48243123D01*
X109136108Y-48240947D01*
X109291912Y-48148069D01*
X109423266Y-48022982D01*
X109523643Y-47871902D01*
X109588055Y-47702338D01*
X109589035Y-47695366D01*
X109612748Y-47526639D01*
X109612748Y-47526636D01*
X109613299Y-47522717D01*
X109613616Y-47500000D01*
X109593397Y-47319745D01*
X109589546Y-47308685D01*
X109543957Y-47177773D01*
X109538998Y-47163532D01*
X109531989Y-47122096D01*
X109531989Y-44784500D01*
X109551991Y-44716379D01*
X109605647Y-44669886D01*
X109657989Y-44658500D01*
X110898134Y-44658500D01*
X110960316Y-44651745D01*
X111096705Y-44600615D01*
X111213261Y-44513261D01*
X111300615Y-44396705D01*
X111316932Y-44353180D01*
X111327949Y-44323793D01*
X111370591Y-44267028D01*
X111437153Y-44242329D01*
X111506502Y-44257537D01*
X111536568Y-44280496D01*
X111581382Y-44326902D01*
X111592209Y-44333987D01*
X111699034Y-44403891D01*
X111733159Y-44426222D01*
X111739763Y-44428678D01*
X111739765Y-44428679D01*
X111896558Y-44486990D01*
X111896560Y-44486990D01*
X111903168Y-44489448D01*
X111986995Y-44500633D01*
X112075980Y-44512507D01*
X112075984Y-44512507D01*
X112082961Y-44513438D01*
X112089972Y-44512800D01*
X112089976Y-44512800D01*
X112232459Y-44499832D01*
X112263600Y-44496998D01*
X112270302Y-44494820D01*
X112270304Y-44494820D01*
X112429409Y-44443124D01*
X112429412Y-44443123D01*
X112436108Y-44440947D01*
X112588031Y-44350382D01*
X112656784Y-44332683D01*
X112721538Y-44353179D01*
X112833159Y-44426222D01*
X112839763Y-44428678D01*
X112839765Y-44428679D01*
X112996558Y-44486990D01*
X112996560Y-44486990D01*
X113003168Y-44489448D01*
X113086995Y-44500633D01*
X113175980Y-44512507D01*
X113175984Y-44512507D01*
X113182961Y-44513438D01*
X113189972Y-44512800D01*
X113189976Y-44512800D01*
X113332459Y-44499832D01*
X113363600Y-44496998D01*
X113370302Y-44494820D01*
X113370304Y-44494820D01*
X113529409Y-44443124D01*
X113529412Y-44443123D01*
X113536108Y-44440947D01*
X113632513Y-44383478D01*
X113685860Y-44351677D01*
X113685862Y-44351676D01*
X113691912Y-44348069D01*
X113754286Y-44288671D01*
X113817411Y-44256179D01*
X113888082Y-44262972D01*
X113930273Y-44290822D01*
X113935685Y-44296234D01*
X113946552Y-44308625D01*
X113966013Y-44333987D01*
X113972563Y-44339013D01*
X113997925Y-44358474D01*
X113997928Y-44358477D01*
X114081187Y-44422364D01*
X114093124Y-44431524D01*
X114100753Y-44434684D01*
X114107170Y-44437342D01*
X114116125Y-44441051D01*
X114241150Y-44492838D01*
X114360115Y-44508500D01*
X114360120Y-44508500D01*
X114360129Y-44508501D01*
X114368310Y-44509578D01*
X114390559Y-44512507D01*
X114391812Y-44512672D01*
X114400000Y-44513750D01*
X114431693Y-44509578D01*
X114448136Y-44508500D01*
X114715699Y-44508500D01*
X114784692Y-44529068D01*
X114885797Y-44595229D01*
X114933159Y-44626222D01*
X114939763Y-44628678D01*
X114939765Y-44628679D01*
X115096558Y-44686990D01*
X115096560Y-44686990D01*
X115103168Y-44689448D01*
X115186995Y-44700633D01*
X115275980Y-44712507D01*
X115275984Y-44712507D01*
X115282961Y-44713438D01*
X115289972Y-44712800D01*
X115289976Y-44712800D01*
X115432459Y-44699832D01*
X115463600Y-44696998D01*
X115470302Y-44694820D01*
X115470304Y-44694820D01*
X115629409Y-44643124D01*
X115629412Y-44643123D01*
X115636108Y-44640947D01*
X115791912Y-44548069D01*
X115923266Y-44422982D01*
X116023643Y-44271902D01*
X116071230Y-44146629D01*
X116085555Y-44108920D01*
X116085556Y-44108918D01*
X116088055Y-44102338D01*
X116089809Y-44089856D01*
X116112748Y-43926639D01*
X116112748Y-43926636D01*
X116113299Y-43922717D01*
X116113616Y-43900000D01*
X116102236Y-43798545D01*
X116114520Y-43728619D01*
X116162659Y-43676435D01*
X116227451Y-43658500D01*
X116398134Y-43658500D01*
X116460316Y-43651745D01*
X116467712Y-43648973D01*
X116467718Y-43648971D01*
X116555771Y-43615961D01*
X116626578Y-43610778D01*
X116644229Y-43615961D01*
X116732282Y-43648971D01*
X116732288Y-43648973D01*
X116739684Y-43651745D01*
X116801866Y-43658500D01*
X118598134Y-43658500D01*
X118660316Y-43651745D01*
X118796705Y-43600615D01*
X118824436Y-43579832D01*
X118890943Y-43554985D01*
X118960325Y-43570039D01*
X118975564Y-43579832D01*
X119003295Y-43600615D01*
X119139684Y-43651745D01*
X119201866Y-43658500D01*
X120998134Y-43658500D01*
X121060316Y-43651745D01*
X121067712Y-43648973D01*
X121067718Y-43648971D01*
X121155771Y-43615961D01*
X121226578Y-43610778D01*
X121244229Y-43615961D01*
X121332282Y-43648971D01*
X121332288Y-43648973D01*
X121339684Y-43651745D01*
X121401866Y-43658500D01*
X123198134Y-43658500D01*
X123260316Y-43651745D01*
X123307586Y-43634024D01*
X123388301Y-43603766D01*
X123388304Y-43603764D01*
X123396705Y-43600615D01*
X123397024Y-43601466D01*
X123458849Y-43587945D01*
X123503166Y-43600958D01*
X123503295Y-43600615D01*
X123507981Y-43602372D01*
X123507985Y-43602373D01*
X123511696Y-43603764D01*
X123511699Y-43603766D01*
X123592414Y-43634024D01*
X123639684Y-43651745D01*
X123701866Y-43658500D01*
X125498134Y-43658500D01*
X125560316Y-43651745D01*
X125696705Y-43600615D01*
X125813261Y-43513261D01*
X125900615Y-43396705D01*
X125951745Y-43260316D01*
X125958500Y-43198134D01*
X125958500Y-41401866D01*
X125951745Y-41339684D01*
X125900615Y-41203295D01*
X125813261Y-41086739D01*
X125696705Y-40999385D01*
X125560316Y-40948255D01*
X125498134Y-40941500D01*
X123701866Y-40941500D01*
X123639684Y-40948255D01*
X123592414Y-40965976D01*
X123511699Y-40996234D01*
X123511696Y-40996236D01*
X123503295Y-40999385D01*
X123502976Y-40998534D01*
X123441151Y-41012055D01*
X123396834Y-40999042D01*
X123396705Y-40999385D01*
X123392019Y-40997628D01*
X123392015Y-40997627D01*
X123388304Y-40996236D01*
X123388301Y-40996234D01*
X123307586Y-40965976D01*
X123260316Y-40948255D01*
X123198134Y-40941500D01*
X121401866Y-40941500D01*
X121339684Y-40948255D01*
X121332288Y-40951027D01*
X121332282Y-40951029D01*
X121244229Y-40984039D01*
X121173422Y-40989222D01*
X121155771Y-40984039D01*
X121067718Y-40951029D01*
X121067712Y-40951027D01*
X121060316Y-40948255D01*
X120998134Y-40941500D01*
X119201866Y-40941500D01*
X119139684Y-40948255D01*
X119003295Y-40999385D01*
X118981006Y-41016089D01*
X118975564Y-41020168D01*
X118909057Y-41045015D01*
X118839675Y-41029961D01*
X118824436Y-41020168D01*
X118818994Y-41016089D01*
X118796705Y-40999385D01*
X118660316Y-40948255D01*
X118598134Y-40941500D01*
X116801866Y-40941500D01*
X116739684Y-40948255D01*
X116732288Y-40951027D01*
X116732282Y-40951029D01*
X116644229Y-40984039D01*
X116573422Y-40989222D01*
X116555771Y-40984039D01*
X116467718Y-40951029D01*
X116467712Y-40951027D01*
X116460316Y-40948255D01*
X116398134Y-40941500D01*
X114601866Y-40941500D01*
X114539684Y-40948255D01*
X114403295Y-40999385D01*
X114286739Y-41086739D01*
X114199385Y-41203295D01*
X114148255Y-41339684D01*
X114141500Y-41401866D01*
X114141500Y-42476761D01*
X114121498Y-42544882D01*
X114067842Y-42591375D01*
X113997568Y-42601479D01*
X113932988Y-42571985D01*
X113926405Y-42565856D01*
X113664315Y-42303766D01*
X113653448Y-42291375D01*
X113639013Y-42272563D01*
X113633987Y-42266013D01*
X113602075Y-42241526D01*
X113602072Y-42241523D01*
X113506876Y-42168476D01*
X113358851Y-42107162D01*
X113350664Y-42106084D01*
X113350663Y-42106084D01*
X113339458Y-42104609D01*
X113308262Y-42100502D01*
X113239885Y-42091500D01*
X113239882Y-42091500D01*
X113239874Y-42091499D01*
X113208189Y-42087328D01*
X113200000Y-42086250D01*
X113168307Y-42090422D01*
X113151864Y-42091500D01*
X112684751Y-42091500D01*
X112616630Y-42071498D01*
X112612157Y-42068276D01*
X112609815Y-42065918D01*
X112598697Y-42058862D01*
X112497626Y-41994721D01*
X112456666Y-41968727D01*
X112427463Y-41958328D01*
X112292425Y-41910243D01*
X112292420Y-41910242D01*
X112285790Y-41907881D01*
X112278802Y-41907048D01*
X112278799Y-41907047D01*
X112155698Y-41892368D01*
X112105680Y-41886404D01*
X112098677Y-41887140D01*
X112098676Y-41887140D01*
X111932288Y-41904628D01*
X111932286Y-41904629D01*
X111925288Y-41905364D01*
X111753579Y-41963818D01*
X111747575Y-41967512D01*
X111605095Y-42055166D01*
X111605092Y-42055168D01*
X111599088Y-42058862D01*
X111591883Y-42065918D01*
X111572657Y-42084745D01*
X111509992Y-42118115D01*
X111439233Y-42112309D01*
X111382846Y-42069169D01*
X111358734Y-42002393D01*
X111358500Y-41994721D01*
X111358500Y-40634000D01*
X111378502Y-40565879D01*
X111432158Y-40519386D01*
X111484500Y-40508000D01*
X133738691Y-40508000D01*
X133806812Y-40528002D01*
G37*
%TD.AperFunction*%
%TD*%
M02*
